<svg xmlns="http://www.w3.org/2000/svg" viewBox="0 0 382.67 521.39"><defs><style>.cls-1,.cls-2,.cls-3{fill:none;stroke:#fff;stroke-miterlimit:10;}.cls-1{stroke-width:2.55px;}.cls-2{stroke-width:2.72px;}.cls-3{stroke-width:1.36px;}.cls-4{fill:#fff;}</style></defs><g id="Capa_2" data-name="Capa 2"><g id="Capa_1-2" data-name="Capa 1"><g id="cuadroInstagram"><rect class="cls-1" x="1.27" y="1.27" width="380.12" height="518.84"/><circle class="cls-2" cx="32.89" cy="33.23" r="21.08"/><g id="enviar"><polygon class="cls-3" points="157.93 464.54 141.17 481.29 123.8 473.84 157.93 464.54"/><polygon class="cls-3" points="159.08 465.94 142.79 483.15 150.72 500.31 159.08 465.94"/></g><path class="cls-4" d="M50.83,473.9a9.38,9.38,0,0,1-3,6.91l-7.09,8.82L32,500.5l-9-11.15-6.86-8.54A9.42,9.42,0,1,1,32,473.9a9.42,9.42,0,0,1,18.84,0Z"/><path class="cls-3" d="M103.38,494.08l3.24,7.14-8.2-2.52a18.16,18.16,0,1,1,5-4.62Z"/><polygon class="cls-3" points="368.81 460.95 368.81 504.7 351.92 487.8 335.5 504.22 335.5 460.95 368.81 460.95"/><rect class="cls-1" x="1.27" y="67.57" width="380.12" height="380.12"/></g></g></g></svg>