<svg xmlns="http://www.w3.org/2000/svg" viewBox="0 0 58.54 59"><defs><style>.cls-1{fill:none;stroke:#fff;stroke-miterlimit:10;stroke-width:4px;}.cls-2{fill:#fff;}</style></defs><g id="Capa_2" data-name="Capa 2"><g id="Capa_1-2" data-name="Capa 1"><g id="INSTAGRAM"><path class="cls-1" d="M16.33,2H41.71A14.82,14.82,0,0,1,56.54,16.82V42.67A14.33,14.33,0,0,1,42.21,57H16.33A14.33,14.33,0,0,1,2,42.67V16.33A14.33,14.33,0,0,1,16.33,2Z"/></g><path class="cls-2" d="M21,23.88H38.78l-.94,7.47h-18Zm3.49-4.48q0-4.38,2-6.55t6.21-2.18h6v7.75H35.1a1.58,1.58,0,0,0-1.4.7,3.12,3.12,0,0,0-.47,1.81V56.82h-8.7Z"/></g></g></svg>