<svg xmlns="http://www.w3.org/2000/svg" viewBox="0 0 122 122"><defs><style>.cls-1{fill:#fff;}.cls-2,.cls-3{fill:none;stroke:#fff;stroke-miterlimit:10;}.cls-2{stroke-width:0.4px;}.cls-3{stroke-width:2px;}</style></defs><g id="Capa_2" data-name="Capa 2"><g id="Capa_3" data-name="Capa 3"><path class="cls-1" d="M43.19,34.29l-2.71,1.14a8,8,0,0,0-.84-1.88,6.23,6.23,0,0,0-1.27-1.47,5.84,5.84,0,0,0-1.67-.95,6.06,6.06,0,0,0-2-.34,5.86,5.86,0,0,0-2.17.4,6.3,6.3,0,0,0-1.78,1.07,7.36,7.36,0,0,0-1.36,1.57,10.21,10.21,0,0,0-1,1.92,11.64,11.64,0,0,0-.58,2.12,12.07,12.07,0,0,0-.2,2.13A14.32,14.32,0,0,0,28,43.31a9.64,9.64,0,0,0,1.23,3,6.82,6.82,0,0,0,2.19,2.12,6.14,6.14,0,0,0,3.26.82,2.55,2.55,0,0,0,1.63-.47,2,2,0,0,0,.59-1.64v-7h6.28V51.42H41.34l-1.11-1.78a10.5,10.5,0,0,1-3.35,1.7,13,13,0,0,1-3.72.54,12.2,12.2,0,0,1-3.22-.41,11.53,11.53,0,0,1-2.87-1.17,11.4,11.4,0,0,1-2.41-1.84,11.57,11.57,0,0,1-1.86-2.38,11.87,11.87,0,0,1-1.18-2.86,12.55,12.55,0,0,1,0-6.44,11.87,11.87,0,0,1,1.18-2.86,11.69,11.69,0,0,1,1.86-2.4,11,11,0,0,1,2.41-1.83,11.53,11.53,0,0,1,2.87-1.17,12.2,12.2,0,0,1,3.22-.42,13.25,13.25,0,0,1,3.15.38,11.34,11.34,0,0,1,2.88,1.15,9.7,9.7,0,0,1,2.36,1.93A8.91,8.91,0,0,1,43.19,34.29Z"/><path class="cls-1" d="M52.44,51.42H47.1V24.73h2l3.29,5.56Z"/><path class="cls-1" d="M76.21,42.25a9.21,9.21,0,0,1-.38,2.67,9.71,9.71,0,0,1-1.06,2.31,8.65,8.65,0,0,1-1.62,1.91,10,10,0,0,1-2.08,1.43,10.77,10.77,0,0,1-2.42.9,11.11,11.11,0,0,1-2.65.32,11.07,11.07,0,0,1-5-1.22,10,10,0,0,1-2.08-1.43,8.65,8.65,0,0,1-1.62-1.91,9.6,9.6,0,0,1-1.06-2.32,9.54,9.54,0,0,1,0-5.33,9.6,9.6,0,0,1,1.06-2.32,8.6,8.6,0,0,1,1.62-1.9A9.61,9.61,0,0,1,61,33.93,11.42,11.42,0,0,1,63.36,33,11,11,0,0,1,66,32.71a11.11,11.11,0,0,1,2.65.31,11.3,11.3,0,0,1,2.42.91,9.61,9.61,0,0,1,2.08,1.43,8.6,8.6,0,0,1,1.62,1.9,9.6,9.6,0,0,1,1.06,2.32A9.31,9.31,0,0,1,76.21,42.25Zm-5.45,0c0-.51,0-1-.08-1.61a11.54,11.54,0,0,0-.3-1.66,8.17,8.17,0,0,0-.56-1.57,5.27,5.27,0,0,0-.88-1.31,4,4,0,0,0-1.25-.9A3.89,3.89,0,0,0,66,34.86a3.72,3.72,0,0,0-1.63.35,4.18,4.18,0,0,0-1.24.92,5.49,5.49,0,0,0-.89,1.34A9.82,9.82,0,0,0,61.67,39a10.67,10.67,0,0,0-.32,1.65,14.42,14.42,0,0,0-.09,1.56,14.71,14.71,0,0,0,.09,1.56,10.67,10.67,0,0,0,.32,1.65A9.17,9.17,0,0,0,62.24,47a5.43,5.43,0,0,0,.89,1.33,4,4,0,0,0,1.24.93,3.72,3.72,0,0,0,1.63.35,4.06,4.06,0,0,0,1.68-.34,4.23,4.23,0,0,0,1.26-.91,5,5,0,0,0,.87-1.32,8.77,8.77,0,0,0,.57-1.56,12.06,12.06,0,0,0,.3-1.66C70.73,43.29,70.76,42.75,70.76,42.25Z"/><path class="cls-1" d="M87.53,51.42H82.72l-5-18.27h5.35L86.2,46l2.61-12.82h4.81l3.2,13.16L99.9,33.15h3.71L98.07,51.42H93.26l-2.71-11.1Z"/><path class="cls-1" d="M22.06,89.7H19.15V66.92h4.08L37.07,82.56V66.92H40V89.7H35.88L22.06,74.07Z"/><path class="cls-1" d="M62.84,89.7H57.5V87.51a6,6,0,0,1-2.29,1.93,6.94,6.94,0,0,1-2.94.62,9.06,9.06,0,0,1-3.73-.74,8.13,8.13,0,0,1-2.78-2,8.9,8.9,0,0,1-1.74-3,11.93,11.93,0,0,1,0-7.47,8.9,8.9,0,0,1,1.74-3,8,8,0,0,1,2.78-2A8.91,8.91,0,0,1,52.27,71a6.42,6.42,0,0,1,2,.32,6.52,6.52,0,0,1,4.12,4.1l2.38-4h2.05Zm-5.38-9.18c0-.47,0-1-.07-1.5a13.84,13.84,0,0,0-.24-1.57A8.28,8.28,0,0,0,56.66,76a4.49,4.49,0,0,0-.79-1.25,3.55,3.55,0,0,0-1.16-.86,3.71,3.71,0,0,0-1.58-.31,3.52,3.52,0,0,0-1.57.32,3.76,3.76,0,0,0-1.14.87A5,5,0,0,0,49.64,76a7.53,7.53,0,0,0-.48,1.48A12.05,12.05,0,0,0,48.91,79c0,.53-.07,1-.07,1.48s0,1,.07,1.49a11.93,11.93,0,0,0,.25,1.57,7.53,7.53,0,0,0,.48,1.48,5,5,0,0,0,.78,1.26,3.76,3.76,0,0,0,1.14.87,3.52,3.52,0,0,0,1.57.32,3,3,0,0,0,1.46-.34,3.91,3.91,0,0,0,1.13-.9,5.7,5.7,0,0,0,.81-1.3,10.05,10.05,0,0,0,.54-1.51,12,12,0,0,0,.3-1.54A12.11,12.11,0,0,0,57.46,80.52Z"/><path class="cls-1" d="M85.1,89.7H79.75V63h2.06l3.29,5.55Z"/><path class="cls-1" d="M105.29,83.86a6.2,6.2,0,0,1-.35,2.14,5.21,5.21,0,0,1-1,1.62,5.36,5.36,0,0,1-1.43,1.15,8.4,8.4,0,0,1-1.76.75,12.28,12.28,0,0,1-2,.42,17.45,17.45,0,0,1-2,.12,15.36,15.36,0,0,1-2.4-.17,10,10,0,0,1-2-.56,11.59,11.59,0,0,1-1.89-1c-.63-.41-1.32-.91-2.09-1.5l3.11-2.55a5.66,5.66,0,0,0,1.13,1.47,10.29,10.29,0,0,0,1.47,1.13,7.11,7.11,0,0,0,1.47.72,3.63,3.63,0,0,0,1.15.26l.83,0a7.68,7.68,0,0,0,.93-.09,5.73,5.73,0,0,0,.93-.22,2.94,2.94,0,0,0,.82-.38,2.11,2.11,0,0,0,.57-.62,1.8,1.8,0,0,0,.21-.89,1.56,1.56,0,0,0-.28-.94A2.56,2.56,0,0,0,100,84a4.55,4.55,0,0,0-1-.51c-.38-.13-.76-.25-1.15-.36s-.75-.2-1.11-.28a9,9,0,0,1-.93-.23l-1.54-.41c-.54-.15-1.07-.31-1.6-.49A12.76,12.76,0,0,1,91.18,81a5.35,5.35,0,0,1-1.26-.91,3.8,3.8,0,0,1-.87-1.25,4,4,0,0,1-.33-1.69,5.71,5.71,0,0,1,.71-3,5.49,5.49,0,0,1,1.85-1.92,7.93,7.93,0,0,1,2.63-1,14.94,14.94,0,0,1,3-.3,11.47,11.47,0,0,1,2.2.22,12.53,12.53,0,0,1,2.25.63,12.14,12.14,0,0,1,2,1A6.46,6.46,0,0,1,105,74.23l-3.12,2.56a5.35,5.35,0,0,0-.91-1.63A5.56,5.56,0,0,0,99.72,74a5,5,0,0,0-1.34-.64,4.7,4.7,0,0,0-1.27-.2c-.38,0-.81,0-1.28,0a5.14,5.14,0,0,0-1.34.26,2.73,2.73,0,0,0-1.06.68A1.71,1.71,0,0,0,93,75.43a1.78,1.78,0,0,0,.26,1,2.7,2.7,0,0,0,.69.7,4.49,4.49,0,0,0,1,.49c.36.13.73.25,1.11.35s.75.18,1.11.26.68.15,1,.23l1.55.42c.54.15,1.07.31,1.6.49a13,13,0,0,1,1.53.65,5.25,5.25,0,0,1,1.29.91,4.14,4.14,0,0,1,.88,1.26A4.06,4.06,0,0,1,105.29,83.86Z"/><path class="cls-1" d="M74.82,71.41V89.57H68V71.77a3.6,3.6,0,0,1,1.21-2.69c-.3,1.47-.57,2.83-.57,3.16a2.76,2.76,0,0,0,5.51,0c0-.33-.25-1.79-.54-3.32A3.19,3.19,0,0,1,74.82,71.41Z"/><path class="cls-2" d="M74.17,72.24a2.76,2.76,0,0,1-5.51,0c0-.33.27-1.69.57-3.16.41-2,.89-4.13.89-4.13h2.76s.4,2,.75,4C73.92,70.45,74.17,71.91,74.17,72.24Z"/><path class="cls-1" d="M69.42,72.47a2.38,2.38,0,0,0,2,1.51c.19,0,.19-.29,0-.3a2.06,2.06,0,0,1-1.73-1.29.15.15,0,0,0-.18-.11.17.17,0,0,0-.11.19Z"/><circle class="cls-3" cx="61" cy="61" r="60"/></g></g></svg>