<svg xmlns="http://www.w3.org/2000/svg" viewBox="0 0 202.01 450.69"><defs><style>.cls-1{fill:#fff;}</style></defs><g id="Capa_2" data-name="Capa 2"><g id="Capa_10" data-name="Capa 10"><g id="mano_linea" data-name="mano linea"><path class="cls-1" d="M61.59,443.69c4.4-17.93,8.28-36,11.82-54.08s6.86-36.26,9.19-54.53c.57-4.56,1.08-9.14,1.43-13.71a100.82,100.82,0,0,0,.32-13.66,27,27,0,0,0-.39-3.28,7.66,7.66,0,0,0-.93-2.74l-.19-.23-.28-.33-.57-.66-1.13-1.33c-.77-.88-1.51-1.77-2.23-2.69a119.79,119.79,0,0,1-8.17-11.34,222.65,222.65,0,0,1-13-24.59L45.77,235.39l-5.88-12.52-3-6.23c-1-2-2.07-4.07-3.15-6.1-4.34-8.09-9-16.06-13.53-24.12-2.26-4-4.5-8.08-6.64-12.19a134.37,134.37,0,0,1-5.93-12.67,36.16,36.16,0,0,1-2-6.87q-.62-3.42-1.17-6.85-1.09-6.85-2-13.74C1.3,124.92.31,115.71.05,106.41c-.06-2.33-.08-4.66,0-7a34.15,34.15,0,0,1,.88-7.13,7.32,7.32,0,0,1,.8-1.89,3.38,3.38,0,0,1,.35-.47l.32-.36a9.28,9.28,0,0,1,.71-.69,5.44,5.44,0,0,1,4-1.46,6.61,6.61,0,0,1,3.7,1.68,15.7,15.7,0,0,1,2.51,2.73,57.25,57.25,0,0,1,6.42,12.52c1.71,4.33,3.17,8.73,4.51,13.16,2.69,8.87,4.91,17.85,6.86,26.88l-.06-.17q6.15,11.39,12.38,22.72c2.08,3.77,4.18,7.54,6.32,11.28s4.25,7.51,6.68,11.06h0a.08.08,0,1,1-.13.09c-2.49-3.54-4.62-7.29-6.82-11s-4.32-7.46-6.45-11.22q-6.37-11.25-12.64-22.57v0h0c-2.08-9-4.35-17.94-7.07-26.75-1.37-4.41-2.85-8.78-4.57-13.06a56.72,56.72,0,0,0-6.35-12.22A15.42,15.42,0,0,0,10,90a5.45,5.45,0,0,0-3-1.38,4.16,4.16,0,0,0-3.06,1.18,6.66,6.66,0,0,0-1.14,1.24,6.14,6.14,0,0,0-.63,1.57,31.94,31.94,0,0,0-.79,6.83c-.08,2.31-.05,4.61,0,6.91.33,9.22,1.31,18.41,2.49,27.56q.9,6.86,2,13.69.55,3.4,1.17,6.81a34.52,34.52,0,0,0,2,6.59,134.38,134.38,0,0,0,5.9,12.5c2.14,4.09,4.38,8.12,6.64,12.14,4.53,8,9.22,16,13.6,24.12,1.09,2,2.16,4.08,3.17,6.16l3,6.26,5.85,12.54,11.58,25.15a219.24,219.24,0,0,0,12.91,24.45,117,117,0,0,0,8,11.23c1.41,1.84,3,3.51,4.44,5.33a8.7,8.7,0,0,1,1.16,3.29,28.68,28.68,0,0,1,.39,3.45,103.28,103.28,0,0,1-.41,13.85c-.39,4.6-.93,9.18-1.53,13.76-2.47,18.3-5.89,36.45-9.6,54.53s-7.83,36.08-12.44,54a.08.08,0,0,1-.1.06S61.57,443.73,61.59,443.69Z"/><path class="cls-1" d="M173.77,450.69c-.11-9.73.25-19.45.6-29.17s.86-19.44,1.34-29.16c1-19.43,2.11-38.85,3-58.28.44-9.71.85-19.43.92-29.14.05-2.43,0-4.85-.09-7.27,0-1.2-.08-2.47,0-3.7s.2-2.46.38-3.67A136,136,0,0,1,183,276c2.47-9.43,5.35-18.73,8.17-28,1.41-4.65,2.82-9.3,4.17-14,.67-2.33,1.35-4.68,1.94-7a64.29,64.29,0,0,0,1.28-7.1,253,253,0,0,0,1.37-29c0-9.72-.21-19.42,0-29.2,0-1.22.09-2.45.2-3.69l.19-1.81c0-.59.09-1.17.09-1.77a38.64,38.64,0,0,0-.57-7.1,110.13,110.13,0,0,0-3.61-14A106,106,0,0,1,192.46,119a130.69,130.69,0,0,1-1.17-14.63c-.16-4.88,0-9.76-.16-14.59a41.9,41.9,0,0,0-.69-7.12c-.06-.23-.05-.14,0-.16a1.07,1.07,0,0,0-.48.08,6.14,6.14,0,0,0-1.44.77,25,25,0,0,0-2.75,2.22,63.51,63.51,0,0,0-9.32,11,28.93,28.93,0,0,0-3.31,6.33c-.86,2.24-1.59,4.55-2.23,6.88a149.83,149.83,0,0,0-4.48,28.69c-.31,4.84-.51,9.69-.47,14.55a102.23,102.23,0,0,0,1,14.52l-.16,0A102.64,102.64,0,0,1,165.42,153c-.14-4.87-.1-9.75.18-14.61a150.62,150.62,0,0,1,4.17-28.94,72.84,72.84,0,0,1,2.19-7,29.8,29.8,0,0,1,3.38-6.6,65,65,0,0,1,9.47-11.27,27,27,0,0,1,2.9-2.38,7.8,7.8,0,0,1,1.77-.94,2.2,2.2,0,0,1,1.31-.09,1.29,1.29,0,0,1,.73.51,1.73,1.73,0,0,1,.29.68,43.11,43.11,0,0,1,.78,7.38c.15,4.89.08,9.74.28,14.58s.55,9.68,1.21,14.44a107.13,107.13,0,0,0,3.68,14A111.13,111.13,0,0,1,201.41,147a39.77,39.77,0,0,1,.59,7.41c0,.62-.05,1.25-.09,1.87l-.2,1.83c-.1,1.17-.16,2.38-.19,3.58-.13,4.83-.07,9.7-.05,14.56s0,9.73,0,14.6A252.63,252.63,0,0,1,199.89,220a64.62,64.62,0,0,1-1.35,7.25c-.62,2.38-1.31,4.7-2,7q-2.07,7-4.24,14c-2.85,9.3-5.78,18.58-8.28,28a133.44,133.44,0,0,0-3.09,14.19c-.18,1.19-.3,2.38-.39,3.58s0,2.36,0,3.59c.06,2.45.12,4.89.06,7.32-.12,9.74-.57,19.46-1.05,29.18-1,19.43-2.24,38.85-3.34,58.27-.54,9.71-1.09,19.42-1.51,29.14s-.83,19.44-.77,29.16Z"/><path class="cls-1" d="M176.24,189.35a126.32,126.32,0,0,0-9.11-21.6c-1.86-3.44-3.89-6.8-5.67-10.33s-3.25-7.22-4.8-10.79c-3.13-7.16-6.55-14.2-10.2-21.12s-7.55-13.7-11.4-20.56c-1.89-3.45-3.81-6.87-5.45-10.54s-3-7.37-4.21-11.13c-2.45-7.5-4.51-15.1-6.46-22.71L116,49.17c-.49-1.88-1-3.8-1.55-5.59s-1.25-3.68-1.91-5.51a227.56,227.56,0,0,0-9.07-21.52,74.12,74.12,0,0,0-5.78-10,19.8,19.8,0,0,0-3.66-4,4.6,4.6,0,0,0-2-1,1.86,1.86,0,0,0-.85,0,2.8,2.8,0,0,0-.86.44c-1.09.81-1.76,2.54-2.11,4.3A29.21,29.21,0,0,0,87.75,12a86.5,86.5,0,0,0,.85,11.53c1,7.71,2.62,15.37,4.36,23s3.69,15.22,5.56,22.84c3.76,15.24,7.49,30.48,11.09,45.75s7,30.58,10.49,45.89l-.16,0q-11-45.78-22.61-91.37c-3.88-15.19-8-30.37-10.18-45.94a87,87,0,0,1-.9-11.74,30.54,30.54,0,0,1,.52-5.88,12.45,12.45,0,0,1,.88-2.84A6,6,0,0,1,89.44.84,3.7,3.7,0,0,1,92.31.05,6.11,6.11,0,0,1,95,1.31a21.16,21.16,0,0,1,4,4.35A74.44,74.44,0,0,1,105,15.83a211.26,211.26,0,0,1,9.11,21.7c.66,1.85,1.32,3.7,1.92,5.57s1.06,3.78,1.56,5.68l2.86,11.41c1.93,7.61,4,15.18,6.38,22.64,1.22,3.73,2.55,7.41,4.12,11s3.5,7,5.37,10.46c3.78,6.87,7.63,13.7,11.23,20.68s7,14.06,10.06,21.27c1.53,3.62,2.94,7.28,4.66,10.8s3.65,6.93,5.46,10.42a127.5,127.5,0,0,1,8.71,21.84Z"/><path class="cls-1" d="M82.13,183.15a115.18,115.18,0,0,0,.29-15.43,146.25,146.25,0,0,0-1.79-15.33,269.25,269.25,0,0,0-7-30.08,67.16,67.16,0,0,1-1.88-7.55c-.42-2.57-.6-5.16-.76-7.73-.28-5.16-.5-10.3-.92-15.43C69.28,81.34,67.94,71.13,66.25,61s-3.87-20.22-5.33-30.49c-.35-2.56-.64-5.15-.79-7.75a35.06,35.06,0,0,1,.31-7.91,11.5,11.5,0,0,1,1.41-3.92,5.88,5.88,0,0,1,1.51-1.64,8.47,8.47,0,0,1,1.89-1,7.58,7.58,0,0,1,4.27-.39,10.15,10.15,0,0,1,3.79,1.76,23.59,23.59,0,0,1,5.33,5.93,58,58,0,0,1,3.87,6.8,124.3,124.3,0,0,1,5.88,14.38C90.09,41.6,91.6,46.54,93,51.5s2.64,10,4.08,14.92l-.16,0c-3.16-9.82-6-19.74-9.61-29.37A142.37,142.37,0,0,0,81.25,23a59,59,0,0,0-3.87-6.57,22.23,22.23,0,0,0-5-5.45,8.69,8.69,0,0,0-3.16-1.48,5.94,5.94,0,0,0-3.33.33,7.17,7.17,0,0,0-1.5.81,4.59,4.59,0,0,0-1.08,1.19,10.19,10.19,0,0,0-1.16,3.33,33.49,33.49,0,0,0-.31,7.51c.12,2.54.39,5.09.72,7.63,1.34,10.17,3.49,20.28,5,30.49s2.88,20.46,3.62,30.76c.38,5.15.55,10.31.79,15.45.14,2.57.3,5.13.69,7.65a63.92,63.92,0,0,0,1.81,7.47,270.92,270.92,0,0,1,6.65,30.22,144.42,144.42,0,0,1,1.64,15.39,115.8,115.8,0,0,1-.46,15.47Z"/><path class="cls-1" d="M55.69,197.87a330.56,330.56,0,0,0-.31-48.55c-.69-8.07-1.62-16.11-3.09-24.06s-3.07-15.93-4.25-24c-.6-4-1.12-8.06-1.53-12.1s-.71-8.11-.9-12.17-.31-8.13-.21-12.21a64.92,64.92,0,0,1,1.32-12.23A17.86,17.86,0,0,1,49,46.72a6.42,6.42,0,0,1,2.49-2.26,3.17,3.17,0,0,1,1.85-.25A4.35,4.35,0,0,1,55,44.9a9.86,9.86,0,0,1,2.27,2.29,22.74,22.74,0,0,1,1.7,2.6,55.2,55.2,0,0,1,2.7,5.52c1.6,3.74,3,7.58,4.2,11.44.63,1.93,1.23,3.87,1.82,5.81s1.13,3.9,1.87,5.77l-.15.07c-.82-1.88-1.4-3.81-2.08-5.73s-1.33-3.82-2-5.73c-1.4-3.8-2.83-7.58-4.51-11.25A54.08,54.08,0,0,0,58,50.34a21.88,21.88,0,0,0-1.67-2.44,9,9,0,0,0-2-2,2.25,2.25,0,0,0-2.26-.3,5.23,5.23,0,0,0-1.92,1.83,16.91,16.91,0,0,0-2,5.44A63.29,63.29,0,0,0,47,64.84c-.07,4,.05,8.06.27,12.1.4,8.07,1.1,16.12,2.2,24.14s2.58,16,4,24,2.23,16.1,2.83,24.2a325,325,0,0,1-.46,48.64Z"/></g></g></g></svg>