<svg xmlns="http://www.w3.org/2000/svg" viewBox="0 0 718.47 367.41"><defs><style>.cls-1{fill:#5c43ff;}.cls-2{fill:#8593ff;}.cls-3{fill:#beceff;}.cls-4{fill:#fafcff;}</style></defs><g id="Capa_2" data-name="Capa 2"><g id="Capa_2-2" data-name="Capa 2"><path class="cls-1" d="M38.92,100.72l-3.76,3.85L5,75.07l5.29-5.41L48.92,71.6,28.21,51.34,32,47.51,62.12,77l-5.29,5.4L18.24,80.47Z"/><path class="cls-1" d="M60.19,30.29c.22,1.65.52,3.32.91,5s.84,3.35,1.35,5,1.07,3.21,1.67,4.75S65.35,48,66,49.3c.47,1,1,2.05,1.6,3.24s1.26,2.39,2,3.58A28.92,28.92,0,0,0,72,59.45,12.12,12.12,0,0,0,74.88,62a7.67,7.67,0,0,0,3.36,1.13,7.15,7.15,0,0,0,3.85-.83,8.12,8.12,0,0,0,2.82-2.13A7.53,7.53,0,0,0,86.3,57.4a9,9,0,0,0,.27-3.13A18.89,18.89,0,0,0,86,51a25.17,25.17,0,0,0-1.09-3.24c-.43-1.06-.88-2-1.33-3L73.42,23.85l10.46-5.09,9.38,19.29a24.51,24.51,0,0,1,2.43,8.33,20.74,20.74,0,0,1-.71,8,18.74,18.74,0,0,1-3.8,6.93,20.53,20.53,0,0,1-6.81,5.16,18.83,18.83,0,0,1-5.68,1.77,19.6,19.6,0,0,1-5.57,0,19.94,19.94,0,0,1-5.26-1.58,21.51,21.51,0,0,1-4.72-2.93,25.87,25.87,0,0,1-4-4,24.36,24.36,0,0,1-3-4.91l-.26-.52a30.44,30.44,0,0,1-1.7-4.57,46.15,46.15,0,0,1-1.7-10.31,47,47,0,0,1,0-5.31Z"/><path class="cls-1" d="M138.64,48.29,109.15,55.2,99.52,14.13,129,7.22l1.23,5.24-18.17,4.26,3,12.7,14-3.29,1.22,5.22-14,3.28,3,12.67L137.41,43Z"/><path class="cls-1" d="M177.8,32.16a15,15,0,0,1-.33,4.84,11.08,11.08,0,0,1-1.66,3.74,11.44,11.44,0,0,1-2.75,2.76,16.91,16.91,0,0,1-3.57,1.91,24.43,24.43,0,0,1-4.18,1.19,41.32,41.32,0,0,1-4.52.6,32,32,0,0,1-5.64,0,21.13,21.13,0,0,1-9.48-3.28,31.46,31.46,0,0,1-4.45-3.46l5.52-6.49a13.72,13.72,0,0,0,2.52,3.56,17,17,0,0,0,3.36,2.7,15.57,15.57,0,0,0,3.69,1.67,9.75,9.75,0,0,0,3.53.44,21.6,21.6,0,0,0,3.6-.54,10.14,10.14,0,0,0,2.89-1.14,5.12,5.12,0,0,0,1.84-1.86,4.63,4.63,0,0,0,.52-2.72A3.85,3.85,0,0,0,168,34a5.13,5.13,0,0,0-1.56-1.4,9.21,9.21,0,0,0-2.11-.92,21.14,21.14,0,0,0-2.38-.57c-.8-.15-1.59-.28-2.36-.38s-1.46-.23-2-.37c-1.18-.24-2.4-.51-3.68-.8s-2.53-.63-3.77-1a25.4,25.4,0,0,1-3.56-1.42,12.72,12.72,0,0,1-3-2,10.48,10.48,0,0,1-2.18-2.86,10,10,0,0,1-1-3.88,15.52,15.52,0,0,1,.31-4.77,11.41,11.41,0,0,1,1.59-3.71,11.26,11.26,0,0,1,2.65-2.77,15.34,15.34,0,0,1,3.47-1.93,22.37,22.37,0,0,1,4.09-1.21,36.38,36.38,0,0,1,4.5-.62,26.59,26.59,0,0,1,5.78.16,22,22,0,0,1,4.9,1.31,21.06,21.06,0,0,1,4.21,2.29,30.58,30.58,0,0,1,3.68,3.09L170,16.64A13.64,13.64,0,0,0,167.73,13a15,15,0,0,0-3-2.7,12.27,12.27,0,0,0-3.33-1.64,9,9,0,0,0-3.26-.42,24.33,24.33,0,0,0-3.69.55,9.85,9.85,0,0,0-2.84,1.13,4.75,4.75,0,0,0-1.76,1.83,4.89,4.89,0,0,0-.47,2.69,4.31,4.31,0,0,0,.65,2.1,4.9,4.9,0,0,0,1.44,1.39,7.74,7.74,0,0,0,2,.87,19.59,19.59,0,0,0,2.23.52c.76.14,1.51.26,2.26.35s1.42.21,2,.34l3.76.78c1.32.27,2.61.61,3.9,1a29.77,29.77,0,0,1,3.69,1.45,13.63,13.63,0,0,1,3.15,2.07,10.48,10.48,0,0,1,2.27,2.92A9.9,9.9,0,0,1,177.8,32.16Z"/><path class="cls-1" d="M203.87,46.33l-11.62-.6L194.16,9l-11.47-.6L183,3l34.55,1.79-.28,5.38-11.47-.59Z"/><path class="cls-1" d="M231.59,49.43,220.12,47.5l7-41.61,20.45,3.45A22.84,22.84,0,0,1,253,11a14.62,14.62,0,0,1,4.4,2.94,10.87,10.87,0,0,1,2.66,4.32,12.12,12.12,0,0,1,.28,5.82,11.21,11.21,0,0,1-1.9,4.65,14.21,14.21,0,0,1-3.57,3.56,16.5,16.5,0,0,1-4.64,2.25,16.29,16.29,0,0,1-5.11.73c.54,1.4,1.12,2.73,1.74,4s1.28,2.48,2,3.61,1.35,2.19,2,3.16,1.35,1.88,2,2.7a46.88,46.88,0,0,0,4.56,5.07l-14.31-2.4a24.3,24.3,0,0,1-2.62-4.52,34.73,34.73,0,0,1-1.86-5.31,29,29,0,0,1-.93-7.07l-3.5-.59Zm17.14-27.36c.47-2.8.13-5-1-6.5s-3.07-2.53-5.78-3l-4-.68-3,18,4,.69a8,8,0,0,0,3.85-.2,7.5,7.5,0,0,0,2.9-1.77,9.81,9.81,0,0,0,2-2.92A15.25,15.25,0,0,0,248.73,22.07Z"/><path class="cls-1" d="M309.42,47.36A23,23,0,0,1,305,55.62a20.07,20.07,0,0,1-6.68,5.2,21.62,21.62,0,0,1-8.32,2,28.53,28.53,0,0,1-17.58-5.41,21.57,21.57,0,0,1-5.75-6.34,20,20,0,0,1-2.61-8,23,23,0,0,1,1-9.3,23.61,23.61,0,0,1,4.39-8.35,19.69,19.69,0,0,1,6.66-5.18,21.19,21.19,0,0,1,8.29-2,29.16,29.16,0,0,1,17.69,5.44A21.3,21.3,0,0,1,307.89,30a19.59,19.59,0,0,1,2.59,8A23.34,23.34,0,0,1,309.42,47.36Zm-11.31-3.48c.38-1.23.71-2.51,1-3.83a24.53,24.53,0,0,0,.54-3.94,17.57,17.57,0,0,0-.17-3.79,10.22,10.22,0,0,0-1.11-3.4A9.19,9.19,0,0,0,296,26.16a11,11,0,0,0-3.76-1.91,11.12,11.12,0,0,0-4.21-.54,9.09,9.09,0,0,0-3.49,1,10.05,10.05,0,0,0-2.81,2.17,18.23,18.23,0,0,0-2.24,3,26.16,26.16,0,0,0-1.75,3.56c-.51,1.27-1,2.52-1.35,3.77s-.71,2.51-1,3.84a25.59,25.59,0,0,0-.53,3.92,17.51,17.51,0,0,0,.17,3.78,10.62,10.62,0,0,0,1.11,3.4,9.51,9.51,0,0,0,2.32,2.78,11,11,0,0,0,3.75,1.92,10.1,10.1,0,0,0,4.08.47,9.51,9.51,0,0,0,3.45-1,11.51,11.51,0,0,0,2.88-2.22A18.7,18.7,0,0,0,295,51a29,29,0,0,0,1.8-3.51A38.35,38.35,0,0,0,298.11,43.88Z"/><path class="cls-1" d="M345.22,73.33a15.36,15.36,0,0,1-2.69,4,11.22,11.22,0,0,1-3.3,2.42,11.55,11.55,0,0,1-3.75,1,16.25,16.25,0,0,1-4.05-.12,24,24,0,0,1-4.22-1A39,39,0,0,1,323,77.94a32.48,32.48,0,0,1-4.88-2.83,21.46,21.46,0,0,1-3.76-3.38,22.89,22.89,0,0,1-2.85-4.17,31.4,31.4,0,0,1-2.14-5.21l8-2.9a13.9,13.9,0,0,0,.42,4.34,17.53,17.53,0,0,0,1.58,4,15.94,15.94,0,0,0,2.38,3.28,9.92,9.92,0,0,0,2.84,2.13,22.28,22.28,0,0,0,3.4,1.31,10.28,10.28,0,0,0,3.07.45,5.16,5.16,0,0,0,2.52-.7,4.69,4.69,0,0,0,1.8-2.11,3.82,3.82,0,0,0,.41-2.14,5.26,5.26,0,0,0-.66-2,9.21,9.21,0,0,0-1.38-1.84A21.8,21.8,0,0,0,332,64.52c-.62-.52-1.24-1-1.86-1.5s-1.15-.93-1.6-1.34c-.9-.79-1.83-1.63-2.79-2.51s-1.89-1.81-2.77-2.77a25.76,25.76,0,0,1-2.39-3,12.71,12.71,0,0,1-1.6-3.27,10.14,10.14,0,0,1-.47-3.57,9.9,9.9,0,0,1,1-3.87,15.9,15.9,0,0,1,2.64-4,11.25,11.25,0,0,1,3.22-2.43,11,11,0,0,1,3.67-1.09,15.55,15.55,0,0,1,4,0,23.36,23.36,0,0,1,4.16,1,35.51,35.51,0,0,1,4.2,1.7,25.9,25.9,0,0,1,4.95,3,21,21,0,0,1,6.12,7.64,29.19,29.19,0,0,1,1.66,4.51l-8,2.9a13.9,13.9,0,0,0-.12-4.28,15.41,15.41,0,0,0-1.24-3.82,12.47,12.47,0,0,0-2.08-3.07,8.89,8.89,0,0,0-2.62-2,23.34,23.34,0,0,0-3.48-1.35,9.76,9.76,0,0,0-3-.44,4.75,4.75,0,0,0-2.44.72,4.85,4.85,0,0,0-1.75,2.11,4.23,4.23,0,0,0-.47,2.14,4.57,4.57,0,0,0,.56,1.92,7.61,7.61,0,0,0,1.27,1.73,22.62,22.62,0,0,0,1.67,1.56c.59.5,1.19,1,1.79,1.42s1.13.88,1.6,1.3l2.88,2.54q1.5,1.34,2.88,2.82A28.68,28.68,0,0,1,344,62.37a13,13,0,0,1,1.71,3.36,10.45,10.45,0,0,1,.53,3.66A10,10,0,0,1,345.22,73.33Z"/><path class="cls-1" d="M404.07,122.21a15.42,15.42,0,0,1-3.95,2.83,11.07,11.07,0,0,1-3.94,1.1,11.56,11.56,0,0,1-3.88-.36,17.15,17.15,0,0,1-3.75-1.54,24.48,24.48,0,0,1-3.57-2.46,38.94,38.94,0,0,1-3.34-3.11,31.76,31.76,0,0,1-3.57-4.37,21.31,21.31,0,0,1-2.31-4.5,21.68,21.68,0,0,1-1.2-4.9,32.21,32.21,0,0,1-.16-5.63l8.52.12a13.68,13.68,0,0,0-1.14,4.21,17.21,17.21,0,0,0,.06,4.31,15.43,15.43,0,0,0,1.06,3.91,9.91,9.91,0,0,0,1.91,3,22.24,22.24,0,0,0,2.71,2.43,10,10,0,0,0,2.72,1.5,5.09,5.09,0,0,0,2.6.24,4.69,4.69,0,0,0,2.43-1.33,3.84,3.84,0,0,0,1.14-1.87,5.23,5.23,0,0,0,.09-2.09,9.29,9.29,0,0,0-.64-2.21,23.47,23.47,0,0,0-1.07-2.2c-.4-.71-.81-1.4-1.21-2.06s-.75-1.27-1-1.82c-.56-1.06-1.13-2.17-1.72-3.34s-1.13-2.35-1.62-3.56a26.72,26.72,0,0,1-1.16-3.66,12.79,12.79,0,0,1-.35-3.62,9.76,9.76,0,0,1,3.16-6.76,15.58,15.58,0,0,1,3.87-2.8,11,11,0,0,1,7.7-.86,15.52,15.52,0,0,1,3.7,1.45,23.34,23.34,0,0,1,3.54,2.38A35.52,35.52,0,0,1,413,87.72a25.76,25.76,0,0,1,3.56,4.56,21.3,21.3,0,0,1,2.11,4.61,21,21,0,0,1,.92,4.71,29.64,29.64,0,0,1,0,4.8l-8.52-.12a13.71,13.71,0,0,0,1.41-4,15.16,15.16,0,0,0,.18-4,12.31,12.31,0,0,0-.85-3.61A8.65,8.65,0,0,0,410,91.84a23,23,0,0,0-2.77-2.49,9.71,9.71,0,0,0-2.67-1.48,4.83,4.83,0,0,0-2.54-.19A4.91,4.91,0,0,0,399.65,89a4.37,4.37,0,0,0-1.2,1.84,4.79,4.79,0,0,0-.15,2,8,8,0,0,0,.57,2.06c.3.69.64,1.37,1,2s.77,1.33,1.17,2,.75,1.23,1,1.79c.57,1.07,1.17,2.2,1.79,3.39s1.19,2.41,1.69,3.65a28.63,28.63,0,0,1,1.24,3.77,13.4,13.4,0,0,1,.41,3.75,10.61,10.61,0,0,1-.8,3.61A10,10,0,0,1,404.07,122.21Z"/><path class="cls-1" d="M430.57,157.57l-25.69-16.06,22.36-35.77,25.69,16.05-2.86,4.57-15.83-9.89-6.9,11.06,12.22,7.64-2.84,4.54-12.22-7.63-6.9,11L433.43,153Z"/><path class="cls-1" d="M453.45,166.75l-11-3.87,14-39.79,19.56,6.9a23.33,23.33,0,0,1,5.1,2.53,14.54,14.54,0,0,1,3.83,3.65,10.93,10.93,0,0,1,1.88,4.72,12,12,0,0,1-.72,5.77,11.24,11.24,0,0,1-2.67,4.26,14.4,14.4,0,0,1-4.13,2.9,16.7,16.7,0,0,1-10.12,1.26c.29,1.47.64,2.88,1,4.25s.83,2.66,1.29,3.89,1,2.38,1.47,3.46,1,2.08,1.49,3a47.43,47.43,0,0,0,3.61,5.78l-13.67-4.82a24.25,24.25,0,0,1-1.82-4.9,35.61,35.61,0,0,1-.91-5.56,29.16,29.16,0,0,1,.29-7.12l-3.34-1.18Zm21.59-24q1.41-4,.12-6.57T470,132.22l-3.87-1.36L460,148.13l3.87,1.36a8,8,0,0,0,3.83.47,7.48,7.48,0,0,0,3.16-1.25,9.74,9.74,0,0,0,2.45-2.54A15.78,15.78,0,0,0,475,142.73Z"/><path class="cls-1" d="M508.42,181.54l-10.44-2-7.36-44.43,11.64,2.28,4.95,35.56,16.9-31.29,7.08,1.39Z"/><path class="cls-1" d="M542.1,186l-11.57-1.2,4.33-42,11.57,1.19Z"/><path class="cls-1" d="M592.66,155.9l-5,2.06a14.75,14.75,0,0,0-1.54-3.5,10.94,10.94,0,0,0-2.31-2.73,10.37,10.37,0,0,0-3.08-1.79,11.13,11.13,0,0,0-3.77-.67,10.94,10.94,0,0,0-4,.68,11.34,11.34,0,0,0-3.31,2,14.27,14.27,0,0,0-2.56,2.9,19.84,19.84,0,0,0-1.85,3.54,21,21,0,0,0-1.12,3.9,22.69,22.69,0,0,0-.39,4,26.44,26.44,0,0,0,.66,6.12,17.48,17.48,0,0,0,2.23,5.51,12.53,12.53,0,0,0,4,4,11.43,11.43,0,0,0,6,1.56,10,10,0,0,0,3.55-.59,11.11,11.11,0,0,0,3.05-1.7,12.29,12.29,0,0,0,2.41-2.57,14,14,0,0,0,1.67-3.21l5.05,2.07a15.7,15.7,0,0,1-3.09,4.85,17.65,17.65,0,0,1-4.45,3.43,21,21,0,0,1-5.32,2,24.49,24.49,0,0,1-5.7.64,23.36,23.36,0,0,1-6-.82,22.4,22.4,0,0,1-5.29-2.22,21.47,21.47,0,0,1-10-13.21,23.16,23.16,0,0,1,.12-11.92,21.67,21.67,0,0,1,2.25-5.29,21.37,21.37,0,0,1,3.47-4.4,21.81,21.81,0,0,1,4.5-3.36,22.27,22.27,0,0,1,5.34-2.11,23,23,0,0,1,6-.7A24.2,24.2,0,0,1,580,145a20.47,20.47,0,0,1,5.3,2.18,17.47,17.47,0,0,1,4.34,3.62A16.35,16.35,0,0,1,592.66,155.9Z"/><path class="cls-1" d="M613.34,185.45l-11.58,1.08-3.92-42,11.59-1.08Z"/><path class="cls-1" d="M664.53,153.53a23,23,0,0,1,.46,9.34,19.93,19.93,0,0,1-3.09,7.88,21.39,21.39,0,0,1-6.12,6,26.94,26.94,0,0,1-8.58,3.66,27.44,27.44,0,0,1-9.29.69,21.56,21.56,0,0,1-8.18-2.51,19.89,19.89,0,0,1-6.36-5.59,23,23,0,0,1-3.88-8.51A23.46,23.46,0,0,1,619,155a19.74,19.74,0,0,1,3.06-7.86,21.26,21.26,0,0,1,6.11-5.94,29.18,29.18,0,0,1,18-4.37,21.26,21.26,0,0,1,8.15,2.48,19.53,19.53,0,0,1,6.33,5.58A23.34,23.34,0,0,1,664.53,153.53ZM653,156.32c-.3-1.25-.67-2.52-1.1-3.8a25.61,25.61,0,0,0-1.56-3.67,17.89,17.89,0,0,0-2.08-3.17,10.47,10.47,0,0,0-2.69-2.34,9.24,9.24,0,0,0-3.41-1.2,12.58,12.58,0,0,0-8.1,2,9.22,9.22,0,0,0-2.5,2.61,9.89,9.89,0,0,0-1.31,3.31,17.67,17.67,0,0,0-.37,3.75,26.94,26.94,0,0,0,.31,4c.21,1.35.47,2.66.77,3.93s.68,2.52,1.11,3.8a25.32,25.32,0,0,0,1.55,3.65,18.18,18.18,0,0,0,2.08,3.16,10.29,10.29,0,0,0,2.69,2.34,9.19,9.19,0,0,0,3.41,1.21,10.64,10.64,0,0,0,4.21-.27,10,10,0,0,0,3.75-1.68,9.34,9.34,0,0,0,2.43-2.67,11.19,11.19,0,0,0,1.33-3.37,18.09,18.09,0,0,0,.44-3.78,26.1,26.1,0,0,0-.25-3.93A38.49,38.49,0,0,0,653,156.32Z"/><path class="cls-1" d="M706.49,137.51a15.21,15.21,0,0,1,2.08,4.38A11.05,11.05,0,0,1,709,146a11.39,11.39,0,0,1-1,3.75,16.46,16.46,0,0,1-2.18,3.42,23.93,23.93,0,0,1-3,3.08A38.69,38.69,0,0,1,699,159a32.7,32.7,0,0,1-4.93,2.73,21.36,21.36,0,0,1-9.87,1.8,31,31,0,0,1-5.57-.84l1.62-8.35a13.84,13.84,0,0,0,3.94,1.86,17.23,17.23,0,0,0,4.26.7,15.25,15.25,0,0,0,4-.36,9.92,9.92,0,0,0,3.29-1.34,22.68,22.68,0,0,0,2.87-2.24,10.54,10.54,0,0,0,2-2.41,5.09,5.09,0,0,0,.69-2.52,4.67,4.67,0,0,0-.88-2.63,3.85,3.85,0,0,0-1.63-1.45,5.42,5.42,0,0,0-2.05-.45,9.1,9.1,0,0,0-2.28.23,21.19,21.19,0,0,0-2.36.67c-.77.27-1.52.54-2.25.83s-1.38.51-2,.69c-1.15.36-2.34.73-3.6,1.1s-2.51.7-3.79,1a26.62,26.62,0,0,1-3.8.51,12.87,12.87,0,0,1-3.63-.3,10.25,10.25,0,0,1-3.3-1.43,10.11,10.11,0,0,1-2.8-2.87,15.8,15.8,0,0,1-2.07-4.31,11.12,11.12,0,0,1,.51-7.72,15.39,15.39,0,0,1,2.08-3.39,23.76,23.76,0,0,1,3-3.07,37.32,37.32,0,0,1,3.62-2.74,27,27,0,0,1,5.11-2.7,21.73,21.73,0,0,1,4.92-1.26,20.78,20.78,0,0,1,4.79-.07,29,29,0,0,1,4.72.89L692,127.84a13.71,13.71,0,0,0-3.73-2.1,15.17,15.17,0,0,0-3.92-.89,12.5,12.5,0,0,0-3.69.21,8.72,8.72,0,0,0-3.05,1.23,23.07,23.07,0,0,0-2.95,2.29,10,10,0,0,0-1.92,2.37,4.72,4.72,0,0,0-.63,2.47A4.91,4.91,0,0,0,673,136a4.27,4.27,0,0,0,1.6,1.5,4.78,4.78,0,0,0,1.94.51,7.86,7.86,0,0,0,2.13-.21,22.71,22.71,0,0,0,2.2-.63c.74-.26,1.45-.52,2.14-.81s1.34-.52,1.94-.71l3.66-1.16a39,39,0,0,1,3.89-1,29.56,29.56,0,0,1,3.92-.55,13.46,13.46,0,0,1,3.77.26,10.5,10.5,0,0,1,3.41,1.43A9.91,9.91,0,0,1,706.49,137.51Z"/><path class="cls-2" d="M33.92,97.72l-3.76,3.85L0,72.07l5.29-5.41L43.92,68.6,23.21,48.34,27,44.51,57.12,74l-5.29,5.4L13.24,77.47Z"/><path class="cls-2" d="M55.19,27.29c.22,1.65.52,3.32.91,5s.84,3.35,1.35,5,1.07,3.21,1.67,4.75S60.35,45,61,46.3c.47,1,1,2.05,1.6,3.24s1.26,2.39,2,3.58A28.92,28.92,0,0,0,67,56.45,12.12,12.12,0,0,0,69.88,59a7.67,7.67,0,0,0,3.36,1.13,7.15,7.15,0,0,0,3.85-.83,8.12,8.12,0,0,0,2.82-2.13A7.53,7.53,0,0,0,81.3,54.4a9,9,0,0,0,.27-3.13A18.89,18.89,0,0,0,81,48a25.17,25.17,0,0,0-1.09-3.24c-.43-1.06-.88-2-1.33-3L68.42,20.85l10.46-5.09,9.38,19.29a24.51,24.51,0,0,1,2.43,8.33,20.74,20.74,0,0,1-.71,8,18.74,18.74,0,0,1-3.8,6.93,20.53,20.53,0,0,1-6.81,5.16,18.83,18.83,0,0,1-5.68,1.77,19.6,19.6,0,0,1-5.57,0,19.94,19.94,0,0,1-5.26-1.58,21.51,21.51,0,0,1-4.72-2.93,25.87,25.87,0,0,1-4-4,24.36,24.36,0,0,1-3-4.91l-.26-.52a30.44,30.44,0,0,1-1.7-4.57,46.15,46.15,0,0,1-1.7-10.31,47,47,0,0,1,0-5.31Z"/><path class="cls-2" d="M133.64,45.29,104.15,52.2,94.52,11.13,124,4.22l1.23,5.24-18.17,4.26,3,12.7,14-3.29,1.22,5.22-14,3.28,3,12.67L132.41,40Z"/><path class="cls-2" d="M172.8,29.16a15,15,0,0,1-.33,4.84,11.08,11.08,0,0,1-1.66,3.74,11.44,11.44,0,0,1-2.75,2.76,16.91,16.91,0,0,1-3.57,1.91,24.43,24.43,0,0,1-4.18,1.19,41.32,41.32,0,0,1-4.52.6,32,32,0,0,1-5.64,0,21.13,21.13,0,0,1-9.48-3.28,31.46,31.46,0,0,1-4.45-3.46l5.52-6.49a13.72,13.72,0,0,0,2.52,3.56,17,17,0,0,0,3.36,2.7,15.57,15.57,0,0,0,3.69,1.67,9.75,9.75,0,0,0,3.53.44,21.6,21.6,0,0,0,3.6-.54,10.14,10.14,0,0,0,2.89-1.14,5.12,5.12,0,0,0,1.84-1.86,4.63,4.63,0,0,0,.52-2.72A3.85,3.85,0,0,0,163,31a5.13,5.13,0,0,0-1.56-1.4,9.21,9.21,0,0,0-2.11-.92,21.14,21.14,0,0,0-2.38-.57c-.8-.15-1.59-.28-2.36-.38s-1.46-.23-2-.37c-1.18-.24-2.4-.51-3.68-.8s-2.53-.63-3.77-1a25.4,25.4,0,0,1-3.56-1.42,12.72,12.72,0,0,1-3-2,10.48,10.48,0,0,1-2.18-2.86,10,10,0,0,1-1-3.88,15.52,15.52,0,0,1,.31-4.77,11.41,11.41,0,0,1,1.59-3.71,11.26,11.26,0,0,1,2.65-2.77,15.34,15.34,0,0,1,3.47-1.93A22.37,22.37,0,0,1,147.4.92,36.38,36.38,0,0,1,151.9.3a26.59,26.59,0,0,1,5.78.16,22,22,0,0,1,4.9,1.31,21.06,21.06,0,0,1,4.21,2.29,30.58,30.58,0,0,1,3.68,3.09L165,13.64A13.64,13.64,0,0,0,162.73,10a15,15,0,0,0-3-2.7,12.27,12.27,0,0,0-3.33-1.64,9,9,0,0,0-3.26-.42,24.33,24.33,0,0,0-3.69.55,9.85,9.85,0,0,0-2.84,1.13,4.75,4.75,0,0,0-1.76,1.83,4.89,4.89,0,0,0-.47,2.69,4.31,4.31,0,0,0,.65,2.1,4.9,4.9,0,0,0,1.44,1.39,7.74,7.74,0,0,0,2,.87,19.59,19.59,0,0,0,2.23.52c.76.14,1.51.26,2.26.35s1.42.21,2,.34l3.76.78c1.32.27,2.61.61,3.9,1a29.77,29.77,0,0,1,3.69,1.45,13.63,13.63,0,0,1,3.15,2.07,10.48,10.48,0,0,1,2.27,2.92A9.9,9.9,0,0,1,172.8,29.16Z"/><path class="cls-2" d="M198.87,43.33l-11.62-.6L189.16,6l-11.47-.6L178,0l34.55,1.79-.28,5.38-11.47-.59Z"/><path class="cls-2" d="M226.59,46.43,215.12,44.5l7-41.61,20.45,3.45A22.84,22.84,0,0,1,248,8a14.62,14.62,0,0,1,4.4,2.94,10.87,10.87,0,0,1,2.66,4.32,12.12,12.12,0,0,1,.28,5.82,11.21,11.21,0,0,1-1.9,4.65,14.21,14.21,0,0,1-3.57,3.56,16.5,16.5,0,0,1-4.64,2.25,16.29,16.29,0,0,1-5.11.73c.54,1.4,1.12,2.73,1.74,4s1.28,2.48,2,3.61,1.35,2.19,2,3.16,1.35,1.88,2,2.7a46.88,46.88,0,0,0,4.56,5.07l-14.31-2.4a24.3,24.3,0,0,1-2.62-4.52,34.73,34.73,0,0,1-1.86-5.31,29,29,0,0,1-.93-7.07l-3.5-.59Zm17.14-27.36c.47-2.8.13-5-1-6.5s-3.07-2.53-5.78-3l-4-.68-3,18,4,.69a8,8,0,0,0,3.85-.2,7.5,7.5,0,0,0,2.9-1.77,9.81,9.81,0,0,0,2-2.92A15.25,15.25,0,0,0,243.73,19.07Z"/><path class="cls-2" d="M304.42,44.36A23,23,0,0,1,300,52.62a20.07,20.07,0,0,1-6.68,5.2,21.62,21.62,0,0,1-8.32,2,28.53,28.53,0,0,1-17.58-5.41,21.57,21.57,0,0,1-5.75-6.34,20,20,0,0,1-2.61-8,23,23,0,0,1,1-9.3,23.61,23.61,0,0,1,4.39-8.35,19.69,19.69,0,0,1,6.66-5.18,21.19,21.19,0,0,1,8.29-2,29.16,29.16,0,0,1,17.69,5.44A21.3,21.3,0,0,1,302.89,27a19.59,19.59,0,0,1,2.59,8A23.34,23.34,0,0,1,304.42,44.36Zm-11.31-3.48c.38-1.23.71-2.51,1-3.83a24.53,24.53,0,0,0,.54-3.94,17.57,17.57,0,0,0-.17-3.79,10.22,10.22,0,0,0-1.11-3.4A9.19,9.19,0,0,0,291,23.16a11,11,0,0,0-3.76-1.91,11.12,11.12,0,0,0-4.21-.54,9.09,9.09,0,0,0-3.49,1,10.05,10.05,0,0,0-2.81,2.17,18.23,18.23,0,0,0-2.24,3,26.16,26.16,0,0,0-1.75,3.56c-.51,1.27-1,2.52-1.35,3.77s-.71,2.51-1,3.84a25.59,25.59,0,0,0-.53,3.92,17.51,17.51,0,0,0,.17,3.78,10.62,10.62,0,0,0,1.11,3.4,9.51,9.51,0,0,0,2.32,2.78,11,11,0,0,0,3.75,1.92,10.1,10.1,0,0,0,4.08.47,9.51,9.51,0,0,0,3.45-1,11.51,11.51,0,0,0,2.88-2.22A18.7,18.7,0,0,0,290,48a29,29,0,0,0,1.8-3.51A38.35,38.35,0,0,0,293.11,40.88Z"/><path class="cls-2" d="M340.22,70.33a15.36,15.36,0,0,1-2.69,4,11.22,11.22,0,0,1-3.3,2.42,11.55,11.55,0,0,1-3.75,1,16.25,16.25,0,0,1-4.05-.12,24,24,0,0,1-4.22-1A39,39,0,0,1,318,74.94a32.48,32.48,0,0,1-4.88-2.83,21.46,21.46,0,0,1-3.76-3.38,22.89,22.89,0,0,1-2.85-4.17,31.4,31.4,0,0,1-2.14-5.21l8-2.9a13.9,13.9,0,0,0,.42,4.34,17.53,17.53,0,0,0,1.58,4,15.94,15.94,0,0,0,2.38,3.28,9.92,9.92,0,0,0,2.84,2.13,22.28,22.28,0,0,0,3.4,1.31,10.28,10.28,0,0,0,3.07.45,5.16,5.16,0,0,0,2.52-.7,4.69,4.69,0,0,0,1.8-2.11,3.82,3.82,0,0,0,.41-2.14,5.26,5.26,0,0,0-.66-2,9.21,9.21,0,0,0-1.38-1.84A21.8,21.8,0,0,0,327,61.52c-.62-.52-1.24-1-1.86-1.5s-1.15-.93-1.6-1.34c-.9-.79-1.83-1.63-2.79-2.51s-1.89-1.81-2.77-2.77a25.76,25.76,0,0,1-2.39-3,12.71,12.71,0,0,1-1.6-3.27,10.14,10.14,0,0,1-.47-3.57,9.9,9.9,0,0,1,1-3.87,15.9,15.9,0,0,1,2.64-4,11.25,11.25,0,0,1,3.22-2.43,11,11,0,0,1,3.67-1.09,15.55,15.55,0,0,1,4,0,23.36,23.36,0,0,1,4.16,1,35.51,35.51,0,0,1,4.2,1.7,25.9,25.9,0,0,1,4.95,3,21,21,0,0,1,6.12,7.64,29.19,29.19,0,0,1,1.66,4.51l-8,2.9a13.9,13.9,0,0,0-.12-4.28,15.41,15.41,0,0,0-1.24-3.82,12.47,12.47,0,0,0-2.08-3.07,8.89,8.89,0,0,0-2.62-2,23.34,23.34,0,0,0-3.48-1.35,9.76,9.76,0,0,0-3-.44,4.75,4.75,0,0,0-2.44.72,4.85,4.85,0,0,0-1.75,2.11,4.23,4.23,0,0,0-.47,2.14,4.57,4.57,0,0,0,.56,1.92,7.61,7.61,0,0,0,1.27,1.73,22.62,22.62,0,0,0,1.67,1.56c.59.5,1.19,1,1.79,1.42s1.13.88,1.6,1.3l2.88,2.54q1.5,1.34,2.88,2.82A28.68,28.68,0,0,1,339,59.37a13,13,0,0,1,1.71,3.36,10.45,10.45,0,0,1,.53,3.66A10,10,0,0,1,340.22,70.33Z"/><path class="cls-2" d="M399.07,119.21a15.42,15.42,0,0,1-3.95,2.83,11.07,11.07,0,0,1-3.94,1.1,11.56,11.56,0,0,1-3.88-.36,17.15,17.15,0,0,1-3.75-1.54,24.48,24.48,0,0,1-3.57-2.46,38.94,38.94,0,0,1-3.34-3.11,31.76,31.76,0,0,1-3.57-4.37,21.31,21.31,0,0,1-2.31-4.5,21.68,21.68,0,0,1-1.2-4.9,32.21,32.21,0,0,1-.16-5.63l8.52.12a13.68,13.68,0,0,0-1.14,4.21,17.21,17.21,0,0,0,.06,4.31,15.43,15.43,0,0,0,1.06,3.91,9.91,9.91,0,0,0,1.91,3,22.24,22.24,0,0,0,2.71,2.43,10,10,0,0,0,2.72,1.5,5.09,5.09,0,0,0,2.6.24,4.69,4.69,0,0,0,2.43-1.33,3.84,3.84,0,0,0,1.14-1.87,5.23,5.23,0,0,0,.09-2.09,9.29,9.29,0,0,0-.64-2.21,23.47,23.47,0,0,0-1.07-2.2c-.4-.71-.81-1.4-1.21-2.06s-.75-1.27-1-1.82c-.56-1.06-1.13-2.17-1.72-3.34s-1.13-2.35-1.62-3.56a26.72,26.72,0,0,1-1.16-3.66,12.79,12.79,0,0,1-.35-3.62,9.76,9.76,0,0,1,3.16-6.76,15.58,15.58,0,0,1,3.87-2.8,11,11,0,0,1,7.7-.86,15.52,15.52,0,0,1,3.7,1.45,23.34,23.34,0,0,1,3.54,2.38A35.52,35.52,0,0,1,408,84.72a25.76,25.76,0,0,1,3.56,4.56,21.3,21.3,0,0,1,2.11,4.61,21,21,0,0,1,.92,4.71,29.64,29.64,0,0,1,0,4.8l-8.52-.12a13.71,13.71,0,0,0,1.41-4,15.16,15.16,0,0,0,.18-4,12.31,12.31,0,0,0-.85-3.61A8.65,8.65,0,0,0,405,88.84a23,23,0,0,0-2.77-2.49,9.71,9.71,0,0,0-2.67-1.48,4.83,4.83,0,0,0-2.54-.19A4.91,4.91,0,0,0,394.65,86a4.37,4.37,0,0,0-1.2,1.84,4.79,4.79,0,0,0-.15,2,8,8,0,0,0,.57,2.06c.3.69.64,1.37,1,2s.77,1.33,1.17,2,.75,1.23,1,1.79c.57,1.07,1.17,2.2,1.79,3.39s1.19,2.41,1.69,3.65a28.63,28.63,0,0,1,1.24,3.77,13.4,13.4,0,0,1,.41,3.75,10.61,10.61,0,0,1-.8,3.61A10,10,0,0,1,399.07,119.21Z"/><path class="cls-2" d="M425.57,154.57l-25.69-16.06,22.36-35.77,25.69,16.05-2.86,4.57-15.83-9.89-6.9,11.06,12.22,7.64-2.84,4.54-12.22-7.63-6.9,11L428.43,150Z"/><path class="cls-2" d="M448.45,163.75l-11-3.87,14-39.79,19.56,6.9a23.33,23.33,0,0,1,5.1,2.53,14.54,14.54,0,0,1,3.83,3.65,10.93,10.93,0,0,1,1.88,4.72,12,12,0,0,1-.72,5.77,11.24,11.24,0,0,1-2.67,4.26,14.4,14.4,0,0,1-4.13,2.9,16.7,16.7,0,0,1-10.12,1.26c.29,1.47.64,2.88,1,4.25s.83,2.66,1.29,3.89,1,2.38,1.47,3.46,1,2.08,1.49,3a47.43,47.43,0,0,0,3.61,5.78l-13.67-4.82a24.25,24.25,0,0,1-1.82-4.9,35.61,35.61,0,0,1-.91-5.56,29.16,29.16,0,0,1,.29-7.12l-3.34-1.18Zm21.59-24q1.41-4,.12-6.57T465,129.22l-3.87-1.36L455,145.13l3.87,1.36a8,8,0,0,0,3.83.47,7.48,7.48,0,0,0,3.16-1.25,9.74,9.74,0,0,0,2.45-2.54A15.78,15.78,0,0,0,470,139.73Z"/><path class="cls-2" d="M503.42,178.54l-10.44-2-7.36-44.43,11.64,2.28,4.95,35.56,16.9-31.29,7.08,1.39Z"/><path class="cls-2" d="M537.1,183l-11.57-1.2,4.33-42,11.57,1.19Z"/><path class="cls-2" d="M587.66,152.9l-5,2.06a14.75,14.75,0,0,0-1.54-3.5,10.94,10.94,0,0,0-2.31-2.73,10.37,10.37,0,0,0-3.08-1.79,11.13,11.13,0,0,0-3.77-.67,10.94,10.94,0,0,0-4,.68,11.34,11.34,0,0,0-3.31,2,14.27,14.27,0,0,0-2.56,2.9,19.84,19.84,0,0,0-1.85,3.54,21,21,0,0,0-1.12,3.9,22.69,22.69,0,0,0-.39,4,26.44,26.44,0,0,0,.66,6.12,17.48,17.48,0,0,0,2.23,5.51,12.53,12.53,0,0,0,4,4,11.43,11.43,0,0,0,6,1.56,10,10,0,0,0,3.55-.59,11.11,11.11,0,0,0,3.05-1.7,12.29,12.29,0,0,0,2.41-2.57,14,14,0,0,0,1.67-3.21l5.05,2.07a15.7,15.7,0,0,1-3.09,4.85,17.65,17.65,0,0,1-4.45,3.43,21,21,0,0,1-5.32,2,24.49,24.49,0,0,1-5.7.64,23.36,23.36,0,0,1-6-.82,22.4,22.4,0,0,1-5.29-2.22,21.47,21.47,0,0,1-10-13.21,23.16,23.16,0,0,1,.12-11.92,21.67,21.67,0,0,1,2.25-5.29,21.37,21.37,0,0,1,3.47-4.4,21.81,21.81,0,0,1,4.5-3.36,22.27,22.27,0,0,1,5.34-2.11,23,23,0,0,1,6-.7A24.2,24.2,0,0,1,575,142a20.47,20.47,0,0,1,5.3,2.18,17.47,17.47,0,0,1,4.34,3.62A16.35,16.35,0,0,1,587.66,152.9Z"/><path class="cls-2" d="M608.34,182.45l-11.58,1.08-3.92-42,11.59-1.08Z"/><path class="cls-2" d="M659.53,150.53a23,23,0,0,1,.46,9.34,19.93,19.93,0,0,1-3.09,7.88,21.39,21.39,0,0,1-6.12,6,26.94,26.94,0,0,1-8.58,3.66,27.44,27.44,0,0,1-9.29.69,21.56,21.56,0,0,1-8.18-2.51,19.89,19.89,0,0,1-6.36-5.59,23,23,0,0,1-3.88-8.51A23.46,23.46,0,0,1,614,152a19.74,19.74,0,0,1,3.06-7.86,21.26,21.26,0,0,1,6.11-5.94,29.18,29.18,0,0,1,18-4.37,21.26,21.26,0,0,1,8.15,2.48,19.53,19.53,0,0,1,6.33,5.58A23.34,23.34,0,0,1,659.53,150.53ZM648,153.32c-.3-1.25-.67-2.52-1.1-3.8a25.61,25.61,0,0,0-1.56-3.67,17.89,17.89,0,0,0-2.08-3.17,10.47,10.47,0,0,0-2.69-2.34,9.24,9.24,0,0,0-3.41-1.2,12.58,12.58,0,0,0-8.1,2,9.22,9.22,0,0,0-2.5,2.61,9.89,9.89,0,0,0-1.31,3.31,17.67,17.67,0,0,0-.37,3.75,26.94,26.94,0,0,0,.31,4c.21,1.35.47,2.66.77,3.93s.68,2.52,1.11,3.8a25.32,25.32,0,0,0,1.55,3.65,18.18,18.18,0,0,0,2.08,3.16,10.29,10.29,0,0,0,2.69,2.34,9.19,9.19,0,0,0,3.41,1.21,10.64,10.64,0,0,0,4.21-.27,10,10,0,0,0,3.75-1.68,9.34,9.34,0,0,0,2.43-2.67,11.19,11.19,0,0,0,1.33-3.37,18.09,18.09,0,0,0,.44-3.78,26.1,26.1,0,0,0-.25-3.93A38.49,38.49,0,0,0,648,153.32Z"/><path class="cls-2" d="M701.49,134.51a15.21,15.21,0,0,1,2.08,4.38A11.05,11.05,0,0,1,704,143a11.39,11.39,0,0,1-1,3.75,16.46,16.46,0,0,1-2.18,3.42,23.93,23.93,0,0,1-3,3.08A38.69,38.69,0,0,1,694,156a32.7,32.7,0,0,1-4.93,2.73,21.36,21.36,0,0,1-9.87,1.8,31,31,0,0,1-5.57-.84l1.62-8.35a13.84,13.84,0,0,0,3.94,1.86,17.23,17.23,0,0,0,4.26.7,15.25,15.25,0,0,0,4-.36,9.92,9.92,0,0,0,3.29-1.34,22.68,22.68,0,0,0,2.87-2.24,10.54,10.54,0,0,0,2-2.41,5.09,5.09,0,0,0,.69-2.52,4.67,4.67,0,0,0-.88-2.63,3.85,3.85,0,0,0-1.63-1.45,5.42,5.42,0,0,0-2.05-.45,9.1,9.1,0,0,0-2.28.23,21.19,21.19,0,0,0-2.36.67c-.77.27-1.52.54-2.25.83s-1.38.51-2,.69c-1.15.36-2.34.73-3.6,1.1s-2.51.7-3.79,1a26.62,26.62,0,0,1-3.8.51,12.87,12.87,0,0,1-3.63-.3,10.25,10.25,0,0,1-3.3-1.43,10.11,10.11,0,0,1-2.8-2.87,15.8,15.8,0,0,1-2.07-4.31,11.12,11.12,0,0,1,.51-7.72,15.39,15.39,0,0,1,2.08-3.39,23.76,23.76,0,0,1,3-3.07,37.32,37.32,0,0,1,3.62-2.74,27,27,0,0,1,5.11-2.7,21.73,21.73,0,0,1,4.92-1.26,20.78,20.78,0,0,1,4.79-.07,29,29,0,0,1,4.72.89L687,124.84a13.71,13.71,0,0,0-3.73-2.1,15.17,15.17,0,0,0-3.92-.89,12.5,12.5,0,0,0-3.69.21,8.72,8.72,0,0,0-3.05,1.23,23.07,23.07,0,0,0-2.95,2.29,10,10,0,0,0-1.92,2.37,4.72,4.72,0,0,0-.63,2.47A4.91,4.91,0,0,0,668,133a4.27,4.27,0,0,0,1.6,1.5,4.78,4.78,0,0,0,1.94.51,7.86,7.86,0,0,0,2.13-.21,22.71,22.71,0,0,0,2.2-.63c.74-.26,1.45-.52,2.14-.81s1.34-.52,1.94-.71l3.66-1.16a39,39,0,0,1,3.89-1,29.56,29.56,0,0,1,3.92-.55,13.46,13.46,0,0,1,3.77.26,10.5,10.5,0,0,1,3.41,1.43A9.91,9.91,0,0,1,701.49,134.51Z"/><path class="cls-2" d="M43.68,184.68l-3.77,3.86L9.75,159l5.29-5.4,38.64,1.94L33,135.31l3.75-3.83L66.87,161l-5.28,5.4L23,164.44Z"/><path class="cls-2" d="M65,114.26c.22,1.65.52,3.32.91,5s.84,3.35,1.35,5,1.06,3.21,1.67,4.74,1.22,3,1.87,4.28l1.59,3.24c.6,1.2,1.26,2.39,2,3.57a29.37,29.37,0,0,0,2.42,3.34A12.36,12.36,0,0,0,79.64,146,7.68,7.68,0,0,0,83,147.08a7.13,7.13,0,0,0,3.85-.83,8,8,0,0,0,2.82-2.14,7.26,7.26,0,0,0,1.4-2.75,9.5,9.5,0,0,0,.27-3.12,19,19,0,0,0-.56-3.29,23.55,23.55,0,0,0-1.08-3.23c-.44-1.06-.88-2.05-1.34-3L78.17,107.82l10.46-5.09L98,122a24.38,24.38,0,0,1,2.42,8.34,20.55,20.55,0,0,1-.71,8,18.72,18.72,0,0,1-3.79,6.93,20.53,20.53,0,0,1-6.81,5.16,18.89,18.89,0,0,1-5.69,1.77,19.24,19.24,0,0,1-5.57,0,19.66,19.66,0,0,1-5.26-1.57,22,22,0,0,1-4.72-2.94,25.74,25.74,0,0,1-4-4,24.69,24.69,0,0,1-3-4.91l-.25-.52a29.39,29.39,0,0,1-1.7-4.57,45.07,45.07,0,0,1-1.14-5,47.64,47.64,0,0,1-.56-5.28,49.27,49.27,0,0,1,0-5.3Z"/><path class="cls-2" d="M143.4,132.26l-29.5,6.91-9.62-41.08,29.49-6.91L135,96.43l-18.17,4.26,3,12.69,14-3.29,1.23,5.22-14,3.29,3,12.67L142.17,127Z"/><path class="cls-2" d="M182.56,116.13a15.57,15.57,0,0,1-.33,4.84,11.19,11.19,0,0,1-1.67,3.74,11.4,11.4,0,0,1-2.74,2.76,16.75,16.75,0,0,1-3.58,1.91,25,25,0,0,1-4.17,1.19,42,42,0,0,1-4.52.6,33.06,33.06,0,0,1-5.65,0,21.5,21.5,0,0,1-4.94-1.08,21.81,21.81,0,0,1-4.54-2.2,30.84,30.84,0,0,1-4.44-3.46l5.51-6.49a14.18,14.18,0,0,0,2.53,3.56,17,17,0,0,0,3.36,2.7,15.57,15.57,0,0,0,3.69,1.67,10,10,0,0,0,3.53.44,23,23,0,0,0,3.6-.54,10.07,10.07,0,0,0,2.88-1.14,5.15,5.15,0,0,0,1.85-1.86,4.79,4.79,0,0,0,.52-2.72,3.92,3.92,0,0,0-.72-2.07,5.32,5.32,0,0,0-1.55-1.39,9.41,9.41,0,0,0-2.11-.92,19.61,19.61,0,0,0-2.38-.57c-.8-.15-1.59-.28-2.36-.39s-1.46-.23-2.06-.36c-1.17-.25-2.4-.51-3.67-.8s-2.53-.63-3.78-1a25.89,25.89,0,0,1-3.56-1.42,13.28,13.28,0,0,1-3-2,10.19,10.19,0,0,1-2.18-2.87,9.94,9.94,0,0,1-1-3.87,15.52,15.52,0,0,1,.31-4.77A11.05,11.05,0,0,1,147,93.79,11.17,11.17,0,0,1,149.59,91a15.56,15.56,0,0,1,3.47-1.93,23.3,23.3,0,0,1,4.1-1.22,36,36,0,0,1,4.49-.61,26.69,26.69,0,0,1,5.79.16,21.64,21.64,0,0,1,4.9,1.31,20.76,20.76,0,0,1,4.2,2.29,28.92,28.92,0,0,1,3.69,3.09l-5.52,6.49A13.71,13.71,0,0,0,172.49,97a15.43,15.43,0,0,0-3-2.71,12.62,12.62,0,0,0-3.32-1.63,8.59,8.59,0,0,0-3.26-.42,22.79,22.79,0,0,0-3.69.55,9.62,9.62,0,0,0-2.84,1.12,4.7,4.7,0,0,0-1.76,1.84,4.8,4.8,0,0,0-.48,2.69,4.21,4.21,0,0,0,.66,2.1,4.67,4.67,0,0,0,1.44,1.39,7.52,7.52,0,0,0,2,.87c.73.21,1.47.38,2.23.52s1.52.26,2.26.35,1.42.2,2,.33l3.76.78c1.31.28,2.61.62,3.89,1a29.77,29.77,0,0,1,3.69,1.45,13.22,13.22,0,0,1,3.15,2.07,10.34,10.34,0,0,1,2.27,2.92A9.74,9.74,0,0,1,182.56,116.13Z"/><path class="cls-2" d="M208.62,130.29l-11.61-.6L198.91,93l-11.47-.6.28-5.38,34.55,1.79L222,94.14l-11.47-.59Z"/><path class="cls-2" d="M236.34,133.4l-11.47-1.93,7-41.61,20.46,3.44a23.61,23.61,0,0,1,5.46,1.62,14.21,14.21,0,0,1,4.39,2.94,10.81,10.81,0,0,1,2.66,4.32,12.08,12.08,0,0,1,.29,5.81,11.33,11.33,0,0,1-1.9,4.66,14.55,14.55,0,0,1-3.57,3.56,16.63,16.63,0,0,1-4.64,2.25,16.39,16.39,0,0,1-5.12.73c.54,1.4,1.12,2.73,1.75,4s1.28,2.47,1.95,3.61,1.35,2.18,2,3.16,1.35,1.88,2,2.7a47.8,47.8,0,0,0,4.55,5.07l-14.3-2.41a23.9,23.9,0,0,1-2.63-4.51,36.07,36.07,0,0,1-1.85-5.32,29.35,29.35,0,0,1-.94-7.06l-3.49-.59ZM253.48,106c.47-2.8.14-5-1-6.5s-3.06-2.54-5.78-3l-4-.68-3,18,4,.68a7.76,7.76,0,0,0,3.85-.2,7.2,7.2,0,0,0,2.9-1.77,9.41,9.41,0,0,0,2-2.92A15,15,0,0,0,253.48,106Z"/><path class="cls-2" d="M314.18,131.33a23,23,0,0,1-4.38,8.26,20,20,0,0,1-6.69,5.19,21.25,21.25,0,0,1-8.31,2,28.42,28.42,0,0,1-17.59-5.41,21.38,21.38,0,0,1-5.74-6.33,20,20,0,0,1-2.61-8.05,23,23,0,0,1,1-9.3,23.45,23.45,0,0,1,4.39-8.35,19.65,19.65,0,0,1,6.65-5.18,21.27,21.27,0,0,1,8.29-2,29.22,29.22,0,0,1,17.7,5.44,21.52,21.52,0,0,1,5.74,6.3,19.84,19.84,0,0,1,2.59,8A23.57,23.57,0,0,1,314.18,131.33Zm-11.32-3.48c.38-1.23.71-2.51,1-3.83a27.2,27.2,0,0,0,.54-3.94,18.36,18.36,0,0,0-.17-3.8,10.49,10.49,0,0,0-1.12-3.39,9.2,9.2,0,0,0-2.32-2.77,11,11,0,0,0-3.75-1.9,11.39,11.39,0,0,0-4.22-.55,9.17,9.17,0,0,0-3.48,1,9.91,9.91,0,0,0-2.81,2.17,17.69,17.69,0,0,0-2.24,3,26.2,26.2,0,0,0-1.76,3.56c-.51,1.27-1,2.52-1.34,3.77s-.71,2.51-1,3.83a25.89,25.89,0,0,0-.53,3.93,18.88,18.88,0,0,0,.17,3.78,10.49,10.49,0,0,0,1.12,3.39,9.24,9.24,0,0,0,2.32,2.78,10.55,10.55,0,0,0,3.74,1.92,10.19,10.19,0,0,0,4.09.48,9.33,9.33,0,0,0,3.45-1.06,11.19,11.19,0,0,0,2.87-2.21,18.35,18.35,0,0,0,2.31-3,26.84,26.84,0,0,0,1.8-3.5A36.67,36.67,0,0,0,302.86,127.85Z"/><path class="cls-2" d="M350,157.29a15.21,15.21,0,0,1-2.7,4,11.13,11.13,0,0,1-3.29,2.42,11.38,11.38,0,0,1-3.76,1,16.27,16.27,0,0,1-4.05-.12,24,24,0,0,1-4.21-1,39.07,39.07,0,0,1-4.23-1.72,32.48,32.48,0,0,1-4.88-2.83,21.52,21.52,0,0,1-6.6-7.55,30.9,30.9,0,0,1-2.14-5.21l8-2.9a14.21,14.21,0,0,0,.43,4.34,17.43,17.43,0,0,0,1.57,4,15.77,15.77,0,0,0,2.38,3.28,9.69,9.69,0,0,0,2.85,2.14,22.53,22.53,0,0,0,3.4,1.31,9.88,9.88,0,0,0,3.06.44,5.06,5.06,0,0,0,2.53-.69,4.69,4.69,0,0,0,1.8-2.11,3.92,3.92,0,0,0,.41-2.14,5.56,5.56,0,0,0-.66-2,9.31,9.31,0,0,0-1.38-1.84,21.7,21.7,0,0,0-1.78-1.68c-.63-.53-1.25-1-1.86-1.51s-1.15-.92-1.61-1.33c-.89-.8-1.82-1.63-2.79-2.52s-1.89-1.8-2.77-2.76a25.76,25.76,0,0,1-2.38-3,12.53,12.53,0,0,1-1.61-3.26,10.38,10.38,0,0,1-.47-3.57,9.92,9.92,0,0,1,1-3.87,15.44,15.44,0,0,1,2.63-4,11,11,0,0,1,6.89-3.53,15.56,15.56,0,0,1,4,0,22.34,22.34,0,0,1,4.16,1,35.65,35.65,0,0,1,4.21,1.7,26.1,26.1,0,0,1,4.94,3,21.81,21.81,0,0,1,3.61,3.57,21.19,21.19,0,0,1,2.52,4.08,30.26,30.26,0,0,1,1.66,4.51l-8,2.9a13.9,13.9,0,0,0-.12-4.28,15,15,0,0,0-1.24-3.82,12.72,12.72,0,0,0-2.07-3.07,8.59,8.59,0,0,0-2.63-2,22.92,22.92,0,0,0-3.48-1.35,9.76,9.76,0,0,0-3-.44,4.81,4.81,0,0,0-2.44.72,4.94,4.94,0,0,0-1.75,2.1,4.29,4.29,0,0,0-.47,2.15,4.88,4.88,0,0,0,.56,1.92,7.92,7.92,0,0,0,1.27,1.73,20.93,20.93,0,0,0,1.68,1.56c.59.5,1.19,1,1.78,1.42s1.14.88,1.61,1.3l2.87,2.54a38.32,38.32,0,0,1,2.88,2.82,31.07,31.07,0,0,1,2.49,3.08,13.35,13.35,0,0,1,1.7,3.37,10.22,10.22,0,0,1,.53,3.66A10,10,0,0,1,350,157.29Z"/><path class="cls-2" d="M408.82,206.18a15.38,15.38,0,0,1-3.94,2.83,11.34,11.34,0,0,1-3.94,1.1,11.56,11.56,0,0,1-3.88-.36,16.34,16.34,0,0,1-3.75-1.55,24.4,24.4,0,0,1-3.57-2.45,40.72,40.72,0,0,1-3.35-3.11,33.09,33.09,0,0,1-3.56-4.38,21.29,21.29,0,0,1-2.32-4.49,22.22,22.22,0,0,1-1.19-4.9,31.29,31.29,0,0,1-.16-5.63l8.51.11a14.09,14.09,0,0,0-1.13,4.22,16.76,16.76,0,0,0,0,4.31,15.56,15.56,0,0,0,1.07,3.91,9.89,9.89,0,0,0,1.9,3,22.31,22.31,0,0,0,2.72,2.43,9.94,9.94,0,0,0,2.71,1.5,5.12,5.12,0,0,0,2.61.24,4.72,4.72,0,0,0,2.43-1.34,3.84,3.84,0,0,0,1.14-1.86,5.42,5.42,0,0,0,.08-2.09,9.15,9.15,0,0,0-.64-2.21,21.23,21.23,0,0,0-1.07-2.2c-.4-.71-.8-1.4-1.21-2.06s-.75-1.27-1-1.82c-.55-1.06-1.13-2.17-1.72-3.34s-1.13-2.35-1.61-3.57a26.65,26.65,0,0,1-1.17-3.65,12.81,12.81,0,0,1-.34-3.62,10.2,10.2,0,0,1,.82-3.51,9.89,9.89,0,0,1,2.33-3.25,15.81,15.81,0,0,1,3.88-2.8,11,11,0,0,1,7.69-.86,15.75,15.75,0,0,1,3.7,1.44,22.93,22.93,0,0,1,3.54,2.39,35.62,35.62,0,0,1,3.34,3.08,26.24,26.24,0,0,1,3.56,4.56,21.56,21.56,0,0,1,2.11,4.61,21,21,0,0,1,.91,4.7,28.66,28.66,0,0,1,0,4.81l-8.51-.12a13.68,13.68,0,0,0,1.4-4,15.23,15.23,0,0,0,.19-4,12.32,12.32,0,0,0-.86-3.6,8.52,8.52,0,0,0-1.75-2.78,22.3,22.3,0,0,0-2.78-2.5,9.39,9.39,0,0,0-2.67-1.47,4.69,4.69,0,0,0-2.53-.19,4.87,4.87,0,0,0-2.38,1.35,4.18,4.18,0,0,0-1.2,1.84,4.6,4.6,0,0,0-.16,2,7.65,7.65,0,0,0,.58,2.07,20.46,20.46,0,0,0,1,2c.38.68.77,1.33,1.17,2s.75,1.23,1,1.78l1.8,3.4c.62,1.19,1.18,2.4,1.69,3.65a29.65,29.65,0,0,1,1.24,3.77,13.39,13.39,0,0,1,.4,3.75,10.21,10.21,0,0,1-.8,3.61A9.85,9.85,0,0,1,408.82,206.18Z"/><path class="cls-2" d="M435.33,241.54l-25.69-16.06L432,189.71l25.69,16-2.85,4.57L439,200.44l-6.91,11.06,12.23,7.63-2.85,4.55L429.25,216l-6.89,11L438.18,237Z"/><path class="cls-2" d="M458.21,250.71l-11-3.86,14-39.79,19.56,6.9a22.89,22.89,0,0,1,5.1,2.53,14.34,14.34,0,0,1,3.82,3.65,10.76,10.76,0,0,1,1.88,4.72,11.89,11.89,0,0,1-.72,5.77,11.1,11.1,0,0,1-2.66,4.26,14.6,14.6,0,0,1-4.13,2.9A16.72,16.72,0,0,1,474,239.05c.29,1.46.63,2.88,1,4.24s.83,2.66,1.3,3.89,1,2.39,1.46,3.47,1,2.08,1.49,3a48.24,48.24,0,0,0,3.62,5.78l-13.68-4.83a24.15,24.15,0,0,1-1.81-4.89,34.65,34.65,0,0,1-.91-5.56,28.65,28.65,0,0,1,.29-7.12l-3.35-1.18Zm21.58-24q1.41-4,.13-6.57t-5.18-3.94l-3.87-1.36-6.09,17.26,3.87,1.37a7.81,7.81,0,0,0,3.82.46,7.29,7.29,0,0,0,3.16-1.24,9.59,9.59,0,0,0,2.45-2.54A14.93,14.93,0,0,0,479.79,226.7Z"/><path class="cls-2" d="M513.17,265.51l-10.43-2.05L495.37,219,507,221.31l5,35.57,16.9-31.29,7.07,1.39Z"/><path class="cls-2" d="M546.85,270l-11.56-1.19,4.32-42L551.18,228Z"/><path class="cls-2" d="M597.41,239.87l-5,2.06a15.14,15.14,0,0,0-1.53-3.5,11.43,11.43,0,0,0-2.32-2.74,10.29,10.29,0,0,0-3.07-1.78,11.62,11.62,0,0,0-7.81,0,11.13,11.13,0,0,0-3.3,1.94,13.78,13.78,0,0,0-2.56,2.91,19.21,19.21,0,0,0-1.85,3.54,21,21,0,0,0-1.13,3.9,24.68,24.68,0,0,0-.39,3.95,26.52,26.52,0,0,0,.66,6.13,17.56,17.56,0,0,0,2.23,5.5,12.43,12.43,0,0,0,4,4,11.44,11.44,0,0,0,6,1.57,10,10,0,0,0,3.55-.6,10.69,10.69,0,0,0,3.05-1.69,12.34,12.34,0,0,0,2.42-2.57,14,14,0,0,0,1.67-3.21l5.05,2.07a15.66,15.66,0,0,1-3.1,4.85,17.6,17.6,0,0,1-4.44,3.43,21.17,21.17,0,0,1-5.32,2,24,24,0,0,1-5.71.63,22.85,22.85,0,0,1-5.95-.82,22,22,0,0,1-5.3-2.21,21.53,21.53,0,0,1-4.43-3.45,21.21,21.21,0,0,1-3.39-4.45,21.79,21.79,0,0,1-2.14-5.31,22.61,22.61,0,0,1-.72-6,22.93,22.93,0,0,1,.83-6,22.22,22.22,0,0,1,2.25-5.28,21.5,21.5,0,0,1,8-7.76,22.27,22.27,0,0,1,5.34-2.11,23,23,0,0,1,6-.71,24.8,24.8,0,0,1,5.84.76,20.4,20.4,0,0,1,5.29,2.18,17.7,17.7,0,0,1,4.35,3.61A16.38,16.38,0,0,1,597.41,239.87Z"/><path class="cls-2" d="M618.1,269.41l-11.58,1.08-3.92-42,11.58-1.08Z"/><path class="cls-2" d="M669.29,237.49a23.17,23.17,0,0,1,.46,9.34,19.89,19.89,0,0,1-3.1,7.88,21.39,21.39,0,0,1-6.11,6A28.54,28.54,0,0,1,642.66,265a21.42,21.42,0,0,1-8.18-2.5,20.23,20.23,0,0,1-6.36-5.59,23,23,0,0,1-3.87-8.51,23.47,23.47,0,0,1-.5-9.42,19.76,19.76,0,0,1,3.07-7.86,21.29,21.29,0,0,1,6.11-6,27.56,27.56,0,0,1,8.64-3.65,27.9,27.9,0,0,1,9.35-.72,21.16,21.16,0,0,1,8.15,2.49,19.61,19.61,0,0,1,6.33,5.57A23.43,23.43,0,0,1,669.29,237.49Zm-11.51,2.8c-.3-1.26-.67-2.52-1.1-3.81a25.93,25.93,0,0,0-1.55-3.66,18.66,18.66,0,0,0-2.08-3.17,10.53,10.53,0,0,0-2.7-2.35,9.35,9.35,0,0,0-3.41-1.19,12.42,12.42,0,0,0-8.1,2,9.36,9.36,0,0,0-2.5,2.61A10.14,10.14,0,0,0,635,234a18.52,18.52,0,0,0-.37,3.76,27.08,27.08,0,0,0,.32,4c.2,1.35.46,2.66.77,3.93s.67,2.52,1.1,3.8a26.5,26.5,0,0,0,1.55,3.65,18.77,18.77,0,0,0,2.08,3.16,10.52,10.52,0,0,0,2.7,2.34,9.37,9.37,0,0,0,3.41,1.21,11,11,0,0,0,4.2-.27,10,10,0,0,0,3.75-1.68,9.2,9.2,0,0,0,2.43-2.67,11.21,11.21,0,0,0,1.34-3.37,18.79,18.79,0,0,0,.44-3.78,27.71,27.71,0,0,0-.25-3.94A36,36,0,0,0,657.78,240.29Z"/><path class="cls-2" d="M711.24,221.47a15.42,15.42,0,0,1,2.09,4.39,11,11,0,0,1-.66,7.82,16.41,16.41,0,0,1-2.17,3.42,24,24,0,0,1-3.06,3.08,36.83,36.83,0,0,1-3.64,2.74,32,32,0,0,1-4.94,2.74,21.48,21.48,0,0,1-4.83,1.49,22,22,0,0,1-5,.31,31.26,31.26,0,0,1-5.57-.84l1.62-8.36a13.9,13.9,0,0,0,4,1.86,16.72,16.72,0,0,0,4.25.71,15.64,15.64,0,0,0,4-.36,9.89,9.89,0,0,0,3.3-1.34,22.52,22.52,0,0,0,2.87-2.25,10,10,0,0,0,1.95-2.4,5.28,5.28,0,0,0,.7-2.53,4.74,4.74,0,0,0-.89-2.63,3.84,3.84,0,0,0-1.63-1.44,5.16,5.16,0,0,0-2-.46,9.25,9.25,0,0,0-2.29.24,21,21,0,0,0-2.35.67c-.78.26-1.52.54-2.25.82s-1.38.52-2,.7c-1.14.36-2.34.73-3.59,1.1s-2.52.7-3.8,1a26.39,26.39,0,0,1-3.8.5,12.76,12.76,0,0,1-3.62-.29,10.21,10.21,0,0,1-3.31-1.43,9.87,9.87,0,0,1-2.79-2.88,15.33,15.33,0,0,1-2.07-4.3,11.3,11.3,0,0,1-.44-4,11.16,11.16,0,0,1,1-3.71,15.51,15.51,0,0,1,2.07-3.38,22.61,22.61,0,0,1,3-3.07,37.17,37.17,0,0,1,3.61-2.74,25.94,25.94,0,0,1,5.12-2.7,21.65,21.65,0,0,1,4.91-1.26,20.79,20.79,0,0,1,4.79-.07,30.23,30.23,0,0,1,4.73.88l-1.62,8.36a13.94,13.94,0,0,0-3.73-2.09,15.27,15.27,0,0,0-3.92-.89,12.55,12.55,0,0,0-3.7.2,8.81,8.81,0,0,0-3.05,1.24,23.65,23.65,0,0,0-2.94,2.29,9.91,9.91,0,0,0-1.93,2.37,4.54,4.54,0,0,0,.28,5,4.23,4.23,0,0,0,1.6,1.51,4.89,4.89,0,0,0,1.93.51,7.93,7.93,0,0,0,2.14-.21c.73-.17,1.46-.38,2.2-.63s1.44-.53,2.13-.81,1.34-.52,1.94-.71l3.66-1.16c1.28-.41,2.58-.75,3.89-1a28.35,28.35,0,0,1,3.93-.55,13.39,13.39,0,0,1,3.76.26,10.11,10.11,0,0,1,3.41,1.43A9.74,9.74,0,0,1,711.24,221.47Z"/><path class="cls-3" d="M38.68,180.68l-3.77,3.86L4.75,155l5.29-5.4,38.64,1.94L28,131.31l3.75-3.83L61.87,157l-5.28,5.4L18,160.44Z"/><path class="cls-3" d="M60,110.26c.22,1.65.52,3.32.91,5s.84,3.35,1.35,5,1.06,3.21,1.67,4.74,1.22,3,1.87,4.28l1.59,3.24c.6,1.2,1.26,2.39,2,3.57a29.37,29.37,0,0,0,2.42,3.34A12.36,12.36,0,0,0,74.64,142,7.68,7.68,0,0,0,78,143.08a7.13,7.13,0,0,0,3.85-.83,8,8,0,0,0,2.82-2.14,7.26,7.26,0,0,0,1.4-2.75,9.5,9.5,0,0,0,.27-3.12,19,19,0,0,0-.56-3.29,23.55,23.55,0,0,0-1.08-3.23c-.44-1.06-.88-2-1.34-3L73.17,103.82l10.46-5.09L93,118a24.38,24.38,0,0,1,2.42,8.34,20.55,20.55,0,0,1-.71,8,18.72,18.72,0,0,1-3.79,6.93,20.53,20.53,0,0,1-6.81,5.16,18.89,18.89,0,0,1-5.69,1.77,19.24,19.24,0,0,1-5.57,0,19.66,19.66,0,0,1-5.26-1.57,22,22,0,0,1-4.72-2.94,25.74,25.74,0,0,1-4-4,24.69,24.69,0,0,1-3-4.91l-.25-.52a29.39,29.39,0,0,1-1.7-4.57,45.07,45.07,0,0,1-1.14-5,47.64,47.64,0,0,1-.56-5.28,49.27,49.27,0,0,1,0-5.3Z"/><path class="cls-3" d="M138.4,128.26l-29.5,6.91L99.28,94.09l29.49-6.91L130,92.43l-18.17,4.26,3,12.69,14-3.29,1.23,5.22-14,3.29,3,12.67L137.17,123Z"/><path class="cls-3" d="M177.56,112.13a15.57,15.57,0,0,1-.33,4.84,11.19,11.19,0,0,1-1.67,3.74,11.4,11.4,0,0,1-2.74,2.76,16.75,16.75,0,0,1-3.58,1.91,25,25,0,0,1-4.17,1.19,42,42,0,0,1-4.52.6,33.06,33.06,0,0,1-5.65,0,21.5,21.5,0,0,1-4.94-1.08,21.81,21.81,0,0,1-4.54-2.2,30.84,30.84,0,0,1-4.44-3.46l5.51-6.49a14.18,14.18,0,0,0,2.53,3.56,17,17,0,0,0,3.36,2.7,15.57,15.57,0,0,0,3.69,1.67,10,10,0,0,0,3.53.44,23,23,0,0,0,3.6-.54,10.07,10.07,0,0,0,2.88-1.14,5.15,5.15,0,0,0,1.85-1.86,4.79,4.79,0,0,0,.52-2.72,3.92,3.92,0,0,0-.72-2.07,5.32,5.32,0,0,0-1.55-1.39,9.41,9.41,0,0,0-2.11-.92,19.61,19.61,0,0,0-2.38-.57c-.8-.15-1.59-.28-2.36-.39s-1.46-.23-2.06-.36c-1.17-.25-2.4-.51-3.67-.8s-2.53-.63-3.78-1a25.89,25.89,0,0,1-3.56-1.42,13.28,13.28,0,0,1-3-2,10.19,10.19,0,0,1-2.18-2.87,9.94,9.94,0,0,1-1-3.87,15.52,15.52,0,0,1,.31-4.77A11.05,11.05,0,0,1,142,89.79,11.17,11.17,0,0,1,144.59,87a15.56,15.56,0,0,1,3.47-1.93,23.3,23.3,0,0,1,4.1-1.22,36,36,0,0,1,4.49-.61,26.69,26.69,0,0,1,5.79.16,21.64,21.64,0,0,1,4.9,1.31,20.76,20.76,0,0,1,4.2,2.29,28.92,28.92,0,0,1,3.69,3.09l-5.52,6.49A13.71,13.71,0,0,0,167.49,93a15.43,15.43,0,0,0-3-2.71,12.62,12.62,0,0,0-3.32-1.63,8.59,8.59,0,0,0-3.26-.42,22.79,22.79,0,0,0-3.69.55,9.62,9.62,0,0,0-2.84,1.12,4.7,4.7,0,0,0-1.76,1.84,4.8,4.8,0,0,0-.48,2.69,4.21,4.21,0,0,0,.66,2.1,4.67,4.67,0,0,0,1.44,1.39,7.52,7.52,0,0,0,2,.87c.73.21,1.47.38,2.23.52s1.52.26,2.26.35,1.42.2,2,.33l3.76.78c1.31.28,2.61.62,3.89,1a29.77,29.77,0,0,1,3.69,1.45,13.22,13.22,0,0,1,3.15,2.07,10.34,10.34,0,0,1,2.27,2.92A9.74,9.74,0,0,1,177.56,112.13Z"/><path class="cls-3" d="M203.62,126.29l-11.61-.6L193.91,89l-11.47-.6.28-5.38,34.55,1.79L217,90.14l-11.47-.59Z"/><path class="cls-3" d="M231.34,129.4l-11.47-1.93,7-41.61,20.46,3.44a23.61,23.61,0,0,1,5.46,1.62,14.21,14.21,0,0,1,4.39,2.94,10.81,10.81,0,0,1,2.66,4.32,12.08,12.08,0,0,1,.29,5.81,11.33,11.33,0,0,1-1.9,4.66,14.55,14.55,0,0,1-3.57,3.56,16.63,16.63,0,0,1-4.64,2.25,16.39,16.39,0,0,1-5.12.73c.54,1.4,1.12,2.73,1.75,4s1.28,2.47,1.95,3.61,1.35,2.18,2,3.16,1.35,1.88,2,2.7a47.8,47.8,0,0,0,4.55,5.07l-14.3-2.41a23.9,23.9,0,0,1-2.63-4.51,36.07,36.07,0,0,1-1.85-5.32,29.35,29.35,0,0,1-.94-7.06l-3.49-.59ZM248.48,102c.47-2.8.14-5-1-6.5s-3.06-2.54-5.78-3l-4-.68-3,18,4,.68a7.76,7.76,0,0,0,3.85-.2,7.2,7.2,0,0,0,2.9-1.77,9.41,9.41,0,0,0,2-2.92A15,15,0,0,0,248.48,102Z"/><path class="cls-3" d="M309.18,127.33a23,23,0,0,1-4.38,8.26,20,20,0,0,1-6.69,5.19,21.25,21.25,0,0,1-8.31,2,28.42,28.42,0,0,1-17.59-5.41,21.38,21.38,0,0,1-5.74-6.33,20,20,0,0,1-2.61-8.05,23,23,0,0,1,1-9.3,23.45,23.45,0,0,1,4.39-8.35,19.65,19.65,0,0,1,6.65-5.18,21.27,21.27,0,0,1,8.29-2,29.22,29.22,0,0,1,17.7,5.44,21.52,21.52,0,0,1,5.74,6.3,19.84,19.84,0,0,1,2.59,8A23.57,23.57,0,0,1,309.18,127.33Zm-11.32-3.48c.38-1.23.71-2.51,1-3.83a27.2,27.2,0,0,0,.54-3.94,18.36,18.36,0,0,0-.17-3.8,10.49,10.49,0,0,0-1.12-3.39,9.2,9.2,0,0,0-2.32-2.77,11,11,0,0,0-3.75-1.9,11.39,11.39,0,0,0-4.22-.55,9.17,9.17,0,0,0-3.48,1,9.91,9.91,0,0,0-2.81,2.17,17.69,17.69,0,0,0-2.24,3,26.2,26.2,0,0,0-1.76,3.56c-.51,1.27-1,2.52-1.34,3.77s-.71,2.51-1,3.83a25.89,25.89,0,0,0-.53,3.93,18.88,18.88,0,0,0,.17,3.78,10.49,10.49,0,0,0,1.12,3.39,9.24,9.24,0,0,0,2.32,2.78,10.55,10.55,0,0,0,3.74,1.92,10.19,10.19,0,0,0,4.09.48,9.33,9.33,0,0,0,3.45-1.06,11.19,11.19,0,0,0,2.87-2.21,18.35,18.35,0,0,0,2.31-3,26.84,26.84,0,0,0,1.8-3.5A36.67,36.67,0,0,0,297.86,123.85Z"/><path class="cls-3" d="M345,153.29a15.21,15.21,0,0,1-2.7,4,11.13,11.13,0,0,1-3.29,2.42,11.38,11.38,0,0,1-3.76,1,16.27,16.27,0,0,1-4.05-.12,24,24,0,0,1-4.21-1,39.07,39.07,0,0,1-4.23-1.72,32.48,32.48,0,0,1-4.88-2.83,21.52,21.52,0,0,1-6.6-7.55,30.9,30.9,0,0,1-2.14-5.21l8-2.9a14.21,14.21,0,0,0,.43,4.34,17.43,17.43,0,0,0,1.57,4,15.77,15.77,0,0,0,2.38,3.28,9.69,9.69,0,0,0,2.85,2.14,22.53,22.53,0,0,0,3.4,1.31,9.88,9.88,0,0,0,3.06.44,5.06,5.06,0,0,0,2.53-.69,4.69,4.69,0,0,0,1.8-2.11,3.92,3.92,0,0,0,.41-2.14,5.56,5.56,0,0,0-.66-2,9.31,9.31,0,0,0-1.38-1.84,21.7,21.7,0,0,0-1.78-1.68c-.63-.53-1.25-1-1.86-1.51s-1.15-.92-1.61-1.33c-.89-.8-1.82-1.63-2.79-2.52s-1.89-1.8-2.77-2.76a25.76,25.76,0,0,1-2.38-3,12.53,12.53,0,0,1-1.61-3.26,10.38,10.38,0,0,1-.47-3.57,9.92,9.92,0,0,1,1-3.87,15.44,15.44,0,0,1,2.63-4,11,11,0,0,1,6.89-3.53,15.56,15.56,0,0,1,4,0,22.34,22.34,0,0,1,4.16,1,35.65,35.65,0,0,1,4.21,1.7,26.1,26.1,0,0,1,4.94,3,21.81,21.81,0,0,1,3.61,3.57,21.19,21.19,0,0,1,2.52,4.08,30.26,30.26,0,0,1,1.66,4.51l-8,2.9a13.9,13.9,0,0,0-.12-4.28,15,15,0,0,0-1.24-3.82,12.72,12.72,0,0,0-2.07-3.07,8.59,8.59,0,0,0-2.63-2,22.92,22.92,0,0,0-3.48-1.35,9.76,9.76,0,0,0-3-.44,4.81,4.81,0,0,0-2.44.72,4.94,4.94,0,0,0-1.75,2.1,4.29,4.29,0,0,0-.47,2.15,4.88,4.88,0,0,0,.56,1.92,7.92,7.92,0,0,0,1.27,1.73,20.93,20.93,0,0,0,1.68,1.56c.59.5,1.19,1,1.78,1.42s1.14.88,1.61,1.3l2.87,2.54a38.32,38.32,0,0,1,2.88,2.82,31.07,31.07,0,0,1,2.49,3.08,13.35,13.35,0,0,1,1.7,3.37,10.22,10.22,0,0,1,.53,3.66A10,10,0,0,1,345,153.29Z"/><path class="cls-3" d="M403.82,202.18a15.38,15.38,0,0,1-3.94,2.83,11.34,11.34,0,0,1-3.94,1.1,11.56,11.56,0,0,1-3.88-.36,16.34,16.34,0,0,1-3.75-1.55,24.4,24.4,0,0,1-3.57-2.45,40.72,40.72,0,0,1-3.35-3.11,33.09,33.09,0,0,1-3.56-4.38,21.29,21.29,0,0,1-2.32-4.49,22.22,22.22,0,0,1-1.19-4.9,31.29,31.29,0,0,1-.16-5.63l8.51.11a14.09,14.09,0,0,0-1.13,4.22,16.76,16.76,0,0,0,0,4.31,15.56,15.56,0,0,0,1.07,3.91,9.89,9.89,0,0,0,1.9,3,22.31,22.31,0,0,0,2.72,2.43,9.94,9.94,0,0,0,2.71,1.5,5.12,5.12,0,0,0,2.61.24,4.72,4.72,0,0,0,2.43-1.34,3.84,3.84,0,0,0,1.14-1.86,5.42,5.42,0,0,0,.08-2.09,9.15,9.15,0,0,0-.64-2.21,21.23,21.23,0,0,0-1.07-2.2c-.4-.71-.8-1.4-1.21-2.06s-.75-1.27-1-1.82c-.55-1.06-1.13-2.17-1.72-3.34s-1.13-2.35-1.61-3.57a26.65,26.65,0,0,1-1.17-3.65,12.81,12.81,0,0,1-.34-3.62,10.2,10.2,0,0,1,.82-3.51,9.89,9.89,0,0,1,2.33-3.25,15.81,15.81,0,0,1,3.88-2.8,11,11,0,0,1,7.69-.86,15.75,15.75,0,0,1,3.7,1.44,22.93,22.93,0,0,1,3.54,2.39,35.62,35.62,0,0,1,3.34,3.08,26.24,26.24,0,0,1,3.56,4.56,21.56,21.56,0,0,1,2.11,4.61,21,21,0,0,1,.91,4.7,28.66,28.66,0,0,1,0,4.81l-8.51-.12a13.68,13.68,0,0,0,1.4-4,15.23,15.23,0,0,0,.19-4,12.32,12.32,0,0,0-.86-3.6,8.52,8.52,0,0,0-1.75-2.78,22.3,22.3,0,0,0-2.78-2.5,9.39,9.39,0,0,0-2.67-1.47,4.69,4.69,0,0,0-2.53-.19,4.87,4.87,0,0,0-2.38,1.35,4.18,4.18,0,0,0-1.2,1.84,4.6,4.6,0,0,0-.16,2,7.65,7.65,0,0,0,.58,2.07,20.46,20.46,0,0,0,1,2c.38.68.77,1.33,1.17,2s.75,1.23,1,1.78l1.8,3.4c.62,1.19,1.18,2.4,1.69,3.65a29.65,29.65,0,0,1,1.24,3.77,13.39,13.39,0,0,1,.4,3.75,10.21,10.21,0,0,1-.8,3.61A9.85,9.85,0,0,1,403.82,202.18Z"/><path class="cls-3" d="M430.33,237.54l-25.69-16.06L427,185.71l25.69,16-2.85,4.57L434,196.44l-6.91,11.06,12.23,7.63-2.85,4.55L424.25,212l-6.89,11L433.18,233Z"/><path class="cls-3" d="M453.21,246.71l-11-3.86,14-39.79,19.56,6.9a22.89,22.89,0,0,1,5.1,2.53,14.34,14.34,0,0,1,3.82,3.65,10.76,10.76,0,0,1,1.88,4.72,11.89,11.89,0,0,1-.72,5.77,11.1,11.1,0,0,1-2.66,4.26,14.6,14.6,0,0,1-4.13,2.9A16.72,16.72,0,0,1,469,235.05c.29,1.46.63,2.88,1,4.24s.83,2.66,1.3,3.89,1,2.39,1.46,3.47,1,2.08,1.49,3a48.24,48.24,0,0,0,3.62,5.78l-13.68-4.83a24.15,24.15,0,0,1-1.81-4.89,34.65,34.65,0,0,1-.91-5.56,28.65,28.65,0,0,1,.29-7.12l-3.35-1.18Zm21.58-24q1.41-4,.13-6.57t-5.18-3.94l-3.87-1.36-6.09,17.26,3.87,1.37a7.81,7.81,0,0,0,3.82.46,7.29,7.29,0,0,0,3.16-1.24,9.59,9.59,0,0,0,2.45-2.54A14.93,14.93,0,0,0,474.79,222.7Z"/><path class="cls-3" d="M508.17,261.51l-10.43-2.05L490.37,215,502,217.31l5,35.57,16.9-31.29,7.07,1.39Z"/><path class="cls-3" d="M541.85,266l-11.56-1.19,4.32-42L546.18,224Z"/><path class="cls-3" d="M592.41,235.87l-5,2.06a15.14,15.14,0,0,0-1.53-3.5,11.43,11.43,0,0,0-2.32-2.74,10.29,10.29,0,0,0-3.07-1.78,11.62,11.62,0,0,0-7.81,0,11.13,11.13,0,0,0-3.3,1.94,13.78,13.78,0,0,0-2.56,2.91,19.21,19.21,0,0,0-1.85,3.54,21,21,0,0,0-1.13,3.9,24.68,24.68,0,0,0-.39,3.95,26.52,26.52,0,0,0,.66,6.13,17.56,17.56,0,0,0,2.23,5.5,12.43,12.43,0,0,0,4,4,11.44,11.44,0,0,0,6,1.57,10,10,0,0,0,3.55-.6,10.69,10.69,0,0,0,3.05-1.69,12.34,12.34,0,0,0,2.42-2.57,14,14,0,0,0,1.67-3.21l5.05,2.07a15.66,15.66,0,0,1-3.1,4.85,17.6,17.6,0,0,1-4.44,3.43,21.17,21.17,0,0,1-5.32,2,24,24,0,0,1-5.71.63,22.85,22.85,0,0,1-5.95-.82,22,22,0,0,1-5.3-2.21,21.53,21.53,0,0,1-4.43-3.45,21.21,21.21,0,0,1-3.39-4.45,21.79,21.79,0,0,1-2.14-5.31,22.61,22.61,0,0,1-.72-6,22.93,22.93,0,0,1,.83-6,22.22,22.22,0,0,1,2.25-5.28,21.5,21.5,0,0,1,8-7.76,22.27,22.27,0,0,1,5.34-2.11,23,23,0,0,1,6-.71,24.8,24.8,0,0,1,5.84.76,20.4,20.4,0,0,1,5.29,2.18,17.7,17.7,0,0,1,4.35,3.61A16.38,16.38,0,0,1,592.41,235.87Z"/><path class="cls-3" d="M613.1,265.41l-11.58,1.08-3.92-42,11.58-1.08Z"/><path class="cls-3" d="M664.29,233.49a23.17,23.17,0,0,1,.46,9.34,19.89,19.89,0,0,1-3.1,7.88,21.39,21.39,0,0,1-6.11,6A28.54,28.54,0,0,1,637.66,261a21.42,21.42,0,0,1-8.18-2.5,20.23,20.23,0,0,1-6.36-5.59,23,23,0,0,1-3.87-8.51,23.47,23.47,0,0,1-.5-9.42,19.76,19.76,0,0,1,3.07-7.86,21.29,21.29,0,0,1,6.11-6,27.56,27.56,0,0,1,8.64-3.65,27.9,27.9,0,0,1,9.35-.72,21.16,21.16,0,0,1,8.15,2.49,19.61,19.61,0,0,1,6.33,5.57A23.43,23.43,0,0,1,664.29,233.49Zm-11.51,2.8c-.3-1.26-.67-2.52-1.1-3.81a25.93,25.93,0,0,0-1.55-3.66,18.66,18.66,0,0,0-2.08-3.17,10.53,10.53,0,0,0-2.7-2.35,9.35,9.35,0,0,0-3.41-1.19,12.42,12.42,0,0,0-8.1,2,9.36,9.36,0,0,0-2.5,2.61A10.14,10.14,0,0,0,630,230a18.52,18.52,0,0,0-.37,3.76,27.08,27.08,0,0,0,.32,4c.2,1.35.46,2.66.77,3.93s.67,2.52,1.1,3.8a26.5,26.5,0,0,0,1.55,3.65,18.77,18.77,0,0,0,2.08,3.16,10.52,10.52,0,0,0,2.7,2.34,9.37,9.37,0,0,0,3.41,1.21,11,11,0,0,0,4.2-.27,10,10,0,0,0,3.75-1.68,9.2,9.2,0,0,0,2.43-2.67,11.21,11.21,0,0,0,1.34-3.37,18.79,18.79,0,0,0,.44-3.78,27.71,27.71,0,0,0-.25-3.94A36,36,0,0,0,652.78,236.29Z"/><path class="cls-3" d="M706.24,217.47a15.42,15.42,0,0,1,2.09,4.39,11,11,0,0,1-.66,7.82,16.41,16.41,0,0,1-2.17,3.42,24,24,0,0,1-3.06,3.08,36.83,36.83,0,0,1-3.64,2.74,32,32,0,0,1-4.94,2.74,21.48,21.48,0,0,1-4.83,1.49,22,22,0,0,1-5,.31,31.26,31.26,0,0,1-5.57-.84l1.62-8.36a13.9,13.9,0,0,0,4,1.86,16.72,16.72,0,0,0,4.25.71,15.64,15.64,0,0,0,4-.36,9.89,9.89,0,0,0,3.3-1.34,22.52,22.52,0,0,0,2.87-2.25,10,10,0,0,0,1.95-2.4,5.28,5.28,0,0,0,.7-2.53,4.74,4.74,0,0,0-.89-2.63,3.84,3.84,0,0,0-1.63-1.44,5.16,5.16,0,0,0-2-.46,9.25,9.25,0,0,0-2.29.24,21,21,0,0,0-2.35.67c-.78.26-1.52.54-2.25.82s-1.38.52-2,.7c-1.14.36-2.34.73-3.59,1.1s-2.52.7-3.8,1a26.39,26.39,0,0,1-3.8.5,12.76,12.76,0,0,1-3.62-.29,10.21,10.21,0,0,1-3.31-1.43,9.87,9.87,0,0,1-2.79-2.88,15.33,15.33,0,0,1-2.07-4.3,11.3,11.3,0,0,1-.44-4,11.16,11.16,0,0,1,1-3.71,15.51,15.51,0,0,1,2.07-3.38,22.61,22.61,0,0,1,3-3.07,37.17,37.17,0,0,1,3.61-2.74,25.94,25.94,0,0,1,5.12-2.7,21.65,21.65,0,0,1,4.91-1.26,20.79,20.79,0,0,1,4.79-.07,30.23,30.23,0,0,1,4.73.88l-1.62,8.36a13.94,13.94,0,0,0-3.73-2.09,15.27,15.27,0,0,0-3.92-.89,12.55,12.55,0,0,0-3.7.2,8.81,8.81,0,0,0-3.05,1.24,23.65,23.65,0,0,0-2.94,2.29,9.91,9.91,0,0,0-1.93,2.37,4.54,4.54,0,0,0,.28,5,4.23,4.23,0,0,0,1.6,1.51,4.89,4.89,0,0,0,1.93.51,7.93,7.93,0,0,0,2.14-.21c.73-.17,1.46-.38,2.2-.63s1.44-.53,2.13-.81,1.34-.52,1.94-.71l3.66-1.16c1.28-.41,2.58-.75,3.89-1a28.35,28.35,0,0,1,3.93-.55,13.39,13.39,0,0,1,3.76.26,10.11,10.11,0,0,1,3.41,1.43A9.74,9.74,0,0,1,706.24,217.47Z"/><path class="cls-2" d="M48.39,279.83l-3.77,3.86L14.47,254.18l5.28-5.4,38.64,1.94L37.68,230.46l3.75-3.83,30.15,29.5-5.28,5.4-38.6-1.94Z"/><path class="cls-2" d="M69.66,209.41c.22,1.65.52,3.32.91,5s.84,3.35,1.35,5,1.06,3.21,1.67,4.74,1.22,3,1.87,4.27l1.59,3.25c.6,1.2,1.26,2.39,2,3.57a29.37,29.37,0,0,0,2.42,3.34,12.08,12.08,0,0,0,2.88,2.52,7.56,7.56,0,0,0,3.35,1.14,7.13,7.13,0,0,0,3.85-.83,8,8,0,0,0,2.82-2.14,7.26,7.26,0,0,0,1.4-2.75,9.53,9.53,0,0,0,.27-3.13,19,19,0,0,0-.55-3.28,25,25,0,0,0-1.09-3.23c-.44-1.06-.88-2.05-1.34-3L82.88,203l10.46-5.09,9.39,19.28a24.38,24.38,0,0,1,2.42,8.34,20.57,20.57,0,0,1-.71,8,18.72,18.72,0,0,1-3.79,6.93,20.66,20.66,0,0,1-6.81,5.16,18.89,18.89,0,0,1-5.69,1.77,19.24,19.24,0,0,1-5.57,0,19.66,19.66,0,0,1-5.26-1.57,22.44,22.44,0,0,1-4.72-2.94,25.74,25.74,0,0,1-4-4,24.69,24.69,0,0,1-3-4.91l-.25-.53a28.89,28.89,0,0,1-1.7-4.56,45.07,45.07,0,0,1-1.14-5,48.16,48.16,0,0,1-.56-5.28,49.27,49.27,0,0,1,0-5.3Z"/><path class="cls-2" d="M148.11,227.41l-29.49,6.91L109,193.24l29.49-6.91,1.23,5.25-18.17,4.26,3,12.69,14-3.29,1.23,5.22-14,3.29,3,12.67,18.17-4.26Z"/><path class="cls-2" d="M187.27,211.28a15.57,15.57,0,0,1-.33,4.84,11.19,11.19,0,0,1-1.67,3.74,11.4,11.4,0,0,1-2.74,2.76,16.75,16.75,0,0,1-3.58,1.91,25,25,0,0,1-4.17,1.19,42,42,0,0,1-4.52.6,33.06,33.06,0,0,1-5.65,0,22,22,0,0,1-4.94-1.08,21.81,21.81,0,0,1-4.54-2.2,30.84,30.84,0,0,1-4.44-3.46l5.51-6.49a14.18,14.18,0,0,0,2.53,3.56,17,17,0,0,0,3.36,2.7,16,16,0,0,0,3.69,1.67,10,10,0,0,0,3.53.44,23,23,0,0,0,3.6-.54,10.07,10.07,0,0,0,2.88-1.14,5.15,5.15,0,0,0,1.85-1.86,4.81,4.81,0,0,0,.52-2.73,3.83,3.83,0,0,0-.72-2.06,5.5,5.5,0,0,0-1.55-1.4,9.39,9.39,0,0,0-2.11-.91,19.61,19.61,0,0,0-2.38-.57c-.8-.15-1.59-.28-2.36-.39s-1.46-.23-2.06-.36c-1.17-.25-2.4-.51-3.67-.8s-2.53-.63-3.78-1a26.54,26.54,0,0,1-3.55-1.42,13.13,13.13,0,0,1-3-2,10.19,10.19,0,0,1-2.18-2.87,9.94,9.94,0,0,1-1-3.87,15.5,15.5,0,0,1,.31-4.77,11.05,11.05,0,0,1,1.59-3.72,11.17,11.17,0,0,1,2.64-2.76,15.56,15.56,0,0,1,3.47-1.93,23.3,23.3,0,0,1,4.1-1.22,36.22,36.22,0,0,1,4.49-.61,26.07,26.07,0,0,1,5.79.16,21.64,21.64,0,0,1,4.9,1.31,21.11,21.11,0,0,1,4.21,2.29,29.54,29.54,0,0,1,3.68,3.09l-5.52,6.49a13.55,13.55,0,0,0-2.22-3.65,15.15,15.15,0,0,0-3-2.71,12.62,12.62,0,0,0-3.32-1.63,8.59,8.59,0,0,0-3.26-.42,22.79,22.79,0,0,0-3.69.55,9.62,9.62,0,0,0-2.84,1.12,4.7,4.7,0,0,0-1.76,1.84,4.8,4.8,0,0,0-.48,2.69,4.21,4.21,0,0,0,.66,2.1A4.67,4.67,0,0,0,161,197a7.44,7.44,0,0,0,2,.87,22.44,22.44,0,0,0,2.22.52c.77.14,1.52.26,2.26.35s1.42.2,2,.33l3.76.78c1.31.28,2.61.62,3.89,1a29.17,29.17,0,0,1,3.69,1.45,13.22,13.22,0,0,1,3.15,2.07,10.16,10.16,0,0,1,2.27,2.92A9.74,9.74,0,0,1,187.27,211.28Z"/><path class="cls-2" d="M213.33,225.44l-11.61-.6,1.9-36.75-11.47-.59.28-5.38L227,183.91l-.27,5.38-11.47-.59Z"/><path class="cls-2" d="M241.05,228.54l-11.47-1.93,7-41.6L257,188.45a23.61,23.61,0,0,1,5.46,1.62,14.21,14.21,0,0,1,4.39,2.94,10.81,10.81,0,0,1,2.66,4.32,12,12,0,0,1,.29,5.81,11.33,11.33,0,0,1-1.9,4.66,14.55,14.55,0,0,1-3.57,3.56,16.73,16.73,0,0,1-9.76,3c.54,1.39,1.12,2.73,1.75,4s1.28,2.48,1.95,3.62,1.35,2.18,2,3.16,1.35,1.88,2,2.7a48.92,48.92,0,0,0,4.55,5.07l-14.3-2.41A23.9,23.9,0,0,1,250,226a36.07,36.07,0,0,1-1.85-5.32,29.35,29.35,0,0,1-.94-7.06l-3.49-.59Zm17.14-27.36q.71-4.19-1-6.49c-1.14-1.54-3.06-2.54-5.78-3l-4-.68-3,18,4,.68a7.76,7.76,0,0,0,3.85-.2,7.2,7.2,0,0,0,2.9-1.77,9.41,9.41,0,0,0,2-2.92A15.1,15.1,0,0,0,258.19,201.18Z"/><path class="cls-2" d="M318.89,226.48a23,23,0,0,1-4.38,8.26,20,20,0,0,1-6.69,5.19,21.25,21.25,0,0,1-8.31,2,28.58,28.58,0,0,1-17.59-5.41,21.38,21.38,0,0,1-5.74-6.33,20,20,0,0,1-2.61-8,23,23,0,0,1,1-9.3A23.37,23.37,0,0,1,279,204.5a19.81,19.81,0,0,1,6.65-5.19,21.44,21.44,0,0,1,8.29-2,29.22,29.22,0,0,1,17.7,5.44,21.52,21.52,0,0,1,5.74,6.3,19.84,19.84,0,0,1,2.59,8A23.57,23.57,0,0,1,318.89,226.48ZM307.57,223c.38-1.23.71-2.51,1-3.83a27.2,27.2,0,0,0,.54-3.94,18.36,18.36,0,0,0-.17-3.8,10.49,10.49,0,0,0-1.12-3.39,9.2,9.2,0,0,0-2.32-2.77,11,11,0,0,0-3.75-1.9,11.39,11.39,0,0,0-4.22-.55,9.17,9.17,0,0,0-3.48,1,10.05,10.05,0,0,0-2.81,2.17,18.56,18.56,0,0,0-2.24,3,26.92,26.92,0,0,0-1.76,3.57c-.51,1.26-1,2.52-1.34,3.77s-.71,2.51-1,3.83a24.72,24.72,0,0,0-.54,3.93,18.88,18.88,0,0,0,.17,3.78,10.49,10.49,0,0,0,1.12,3.39A9.24,9.24,0,0,0,288,234a10.55,10.55,0,0,0,3.74,1.92,10.19,10.19,0,0,0,4.09.48,9.33,9.33,0,0,0,3.45-1.06,11.19,11.19,0,0,0,2.87-2.21,18.35,18.35,0,0,0,2.31-3,26.35,26.35,0,0,0,1.8-3.51A35.62,35.62,0,0,0,307.57,223Z"/><path class="cls-2" d="M354.69,252.44a15.44,15.44,0,0,1-2.69,4,11.07,11.07,0,0,1-7.06,3.46,16.77,16.77,0,0,1-4.05-.12,24,24,0,0,1-4.21-1,39.91,39.91,0,0,1-4.23-1.72,33.35,33.35,0,0,1-4.88-2.83,21.52,21.52,0,0,1-6.6-7.55,30.9,30.9,0,0,1-2.14-5.21l8-2.9a14.21,14.21,0,0,0,.43,4.34,17.43,17.43,0,0,0,1.57,4,15.77,15.77,0,0,0,2.38,3.28,9.69,9.69,0,0,0,2.85,2.14,22.53,22.53,0,0,0,3.4,1.31,9.88,9.88,0,0,0,3.06.44,5.06,5.06,0,0,0,2.53-.69,4.69,4.69,0,0,0,1.8-2.11,3.94,3.94,0,0,0,.41-2.15,5.58,5.58,0,0,0-.66-2,9.31,9.31,0,0,0-1.38-1.84,21.7,21.7,0,0,0-1.78-1.68c-.63-.53-1.25-1-1.86-1.51s-1.15-.92-1.61-1.33c-.89-.8-1.82-1.63-2.79-2.52s-1.89-1.8-2.77-2.76a27.8,27.8,0,0,1-2.38-3,13,13,0,0,1-1.61-3.26,10.38,10.38,0,0,1-.47-3.57,9.92,9.92,0,0,1,1-3.87,15.27,15.27,0,0,1,2.63-4,11.06,11.06,0,0,1,6.89-3.53,15.64,15.64,0,0,1,4,.05,22.43,22.43,0,0,1,4.15,1,33.4,33.4,0,0,1,4.21,1.7,26.1,26.1,0,0,1,4.94,3,21.81,21.81,0,0,1,3.61,3.57,20.89,20.89,0,0,1,2.52,4.08,29.85,29.85,0,0,1,1.66,4.51l-8,2.9a13.9,13.9,0,0,0-.12-4.28,15,15,0,0,0-1.24-3.82,12.72,12.72,0,0,0-2.07-3.07,8.59,8.59,0,0,0-2.63-2,22.53,22.53,0,0,0-3.48-1.35,9.76,9.76,0,0,0-3-.44,4.81,4.81,0,0,0-2.44.72,4.94,4.94,0,0,0-1.75,2.1,4.4,4.4,0,0,0-.47,2.15,4.88,4.88,0,0,0,.56,1.92,7.92,7.92,0,0,0,1.27,1.73,20.93,20.93,0,0,0,1.68,1.56c.59.5,1.19,1,1.78,1.42s1.14.88,1.61,1.3l2.88,2.54A40.18,40.18,0,0,1,351,238.4a30,30,0,0,1,2.49,3.08,13.18,13.18,0,0,1,1.7,3.37,10.22,10.22,0,0,1,.53,3.66A10,10,0,0,1,354.69,252.44Z"/><path class="cls-2" d="M413.53,301.33a15.38,15.38,0,0,1-3.94,2.83,10.93,10.93,0,0,1-7.82.73,15.87,15.87,0,0,1-3.75-1.54,24.4,24.4,0,0,1-3.57-2.45,40.72,40.72,0,0,1-3.35-3.11,33.09,33.09,0,0,1-3.56-4.38,21.77,21.77,0,0,1-2.32-4.49A22.36,22.36,0,0,1,384,284a31.29,31.29,0,0,1-.16-5.63l8.51.11a14.09,14.09,0,0,0-1.13,4.22,16.76,16.76,0,0,0,.05,4.31,15.56,15.56,0,0,0,1.07,3.91,9.89,9.89,0,0,0,1.9,3,22.31,22.31,0,0,0,2.72,2.43,9.94,9.94,0,0,0,2.71,1.5,5.12,5.12,0,0,0,2.61.24,4.72,4.72,0,0,0,2.43-1.34,3.89,3.89,0,0,0,1.14-1.86,5.42,5.42,0,0,0,.08-2.09,9.59,9.59,0,0,0-.63-2.21,23.56,23.56,0,0,0-1.08-2.2c-.4-.71-.8-1.4-1.21-2.06s-.75-1.27-1-1.82c-.55-1.06-1.13-2.17-1.72-3.34s-1.12-2.36-1.61-3.57a26.65,26.65,0,0,1-1.17-3.65,12.81,12.81,0,0,1-.34-3.62,10.2,10.2,0,0,1,.82-3.51,9.89,9.89,0,0,1,2.33-3.25,15.81,15.81,0,0,1,3.88-2.8,11,11,0,0,1,3.87-1.14,11.43,11.43,0,0,1,3.82.28,15.75,15.75,0,0,1,3.7,1.44,23.5,23.5,0,0,1,3.55,2.39,38.19,38.19,0,0,1,3.33,3.07A26.67,26.67,0,0,1,426,271.4a21.34,21.34,0,0,1,2.11,4.61,20.88,20.88,0,0,1,.91,4.7,28.66,28.66,0,0,1,0,4.81l-8.51-.12a13.68,13.68,0,0,0,1.4-4,15.23,15.23,0,0,0,.19-4,12.32,12.32,0,0,0-.86-3.6,8.52,8.52,0,0,0-1.75-2.78,22.3,22.3,0,0,0-2.78-2.5A9.39,9.39,0,0,0,414,267a4.69,4.69,0,0,0-2.53-.19,4.87,4.87,0,0,0-2.38,1.35,4.18,4.18,0,0,0-1.2,1.84,4.6,4.6,0,0,0-.16,2,7.65,7.65,0,0,0,.58,2.07c.3.69.63,1.37,1,2.05s.77,1.33,1.17,2,.75,1.23,1,1.78l1.8,3.4c.62,1.19,1.18,2.4,1.69,3.65a29.65,29.65,0,0,1,1.24,3.77,13.39,13.39,0,0,1,.4,3.75,10.11,10.11,0,0,1-.8,3.6A9.79,9.79,0,0,1,413.53,301.33Z"/><path class="cls-2" d="M440,336.68l-25.69-16.05,22.35-35.78,25.69,16.06-2.85,4.57-15.83-9.89-6.91,11.06L449,314.28l-2.85,4.55L434,311.19l-6.89,11,15.82,9.89Z"/><path class="cls-2" d="M462.92,345.86,452,342l14-39.79,19.56,6.9a22.89,22.89,0,0,1,5.1,2.53,14.34,14.34,0,0,1,3.82,3.65,10.76,10.76,0,0,1,1.88,4.71,11.93,11.93,0,0,1-.72,5.78A11.1,11.1,0,0,1,493,330a14.37,14.37,0,0,1-4.13,2.89,16.29,16.29,0,0,1-5,1.42,16.5,16.5,0,0,1-5.16-.15c.29,1.46.63,2.88,1,4.24s.83,2.66,1.3,3.89.95,2.39,1.46,3.47,1,2.08,1.49,3a48.24,48.24,0,0,0,3.62,5.78l-13.68-4.83a24.15,24.15,0,0,1-1.81-4.89,34.65,34.65,0,0,1-.91-5.56,28.65,28.65,0,0,1,.29-7.12L468.16,331Zm21.58-24c.94-2.67,1-4.86.13-6.57s-2.59-3-5.18-3.94L475.58,310l-6.09,17.26,3.87,1.37a7.93,7.93,0,0,0,3.82.46,7.29,7.29,0,0,0,3.16-1.24,9.59,9.59,0,0,0,2.45-2.54A15.13,15.13,0,0,0,484.5,321.85Z"/><path class="cls-2" d="M517.88,360.66l-10.43-2.05-7.37-44.43,11.65,2.28L516.68,352l16.9-31.29,7.07,1.38Z"/><path class="cls-2" d="M551.57,365.13,540,363.94l4.33-42,11.56,1.19Z"/><path class="cls-2" d="M602.12,335l-5,2.06a15,15,0,0,0-1.53-3.5,11,11,0,0,0-2.32-2.74,10.29,10.29,0,0,0-3.07-1.78,11.62,11.62,0,0,0-7.81,0,11.39,11.39,0,0,0-3.3,1.94,13.78,13.78,0,0,0-2.56,2.91,18.9,18.9,0,0,0-1.85,3.54,21,21,0,0,0-1.13,3.9,24.68,24.68,0,0,0-.39,3.95,27.08,27.08,0,0,0,.66,6.13,17.56,17.56,0,0,0,2.23,5.5,12.43,12.43,0,0,0,4,4,11.44,11.44,0,0,0,6,1.57,10.05,10.05,0,0,0,3.56-.6,10.8,10.8,0,0,0,3-1.7,12.28,12.28,0,0,0,2.42-2.56,14,14,0,0,0,1.67-3.21l5,2.07a15.66,15.66,0,0,1-3.1,4.85,17.83,17.83,0,0,1-4.44,3.43,21.17,21.17,0,0,1-5.32,2,24,24,0,0,1-5.71.63,22.85,22.85,0,0,1-6-.82,21.67,21.67,0,0,1-5.3-2.22,21.14,21.14,0,0,1-4.43-3.44,21.56,21.56,0,0,1-3.39-4.45,21.79,21.79,0,0,1-2.14-5.31,22.61,22.61,0,0,1-.72-6,22.93,22.93,0,0,1,.83-6,22.22,22.22,0,0,1,2.25-5.28,21.44,21.44,0,0,1,3.47-4.4,21.12,21.12,0,0,1,4.5-3.36,22.27,22.27,0,0,1,5.34-2.11,23,23,0,0,1,6-.71,24.29,24.29,0,0,1,5.84.76,20.06,20.06,0,0,1,5.29,2.18,17.7,17.7,0,0,1,4.35,3.61A16.38,16.38,0,0,1,602.12,335Z"/><path class="cls-2" d="M622.81,364.56l-11.58,1.08-3.92-42,11.58-1.08Z"/><path class="cls-2" d="M674,332.64a23.17,23.17,0,0,1,.46,9.34,20,20,0,0,1-3.09,7.88,21.55,21.55,0,0,1-6.12,6,28.54,28.54,0,0,1-17.88,4.34,21.6,21.6,0,0,1-8.18-2.5,20.23,20.23,0,0,1-6.36-5.59,23,23,0,0,1-3.87-8.51,23.47,23.47,0,0,1-.5-9.42,19.76,19.76,0,0,1,3.07-7.86,21.29,21.29,0,0,1,6.11-5.95,29.17,29.17,0,0,1,18-4.37,21.26,21.26,0,0,1,8.16,2.49,19.68,19.68,0,0,1,6.32,5.57A23.43,23.43,0,0,1,674,332.64Zm-11.5,2.8c-.31-1.26-.68-2.52-1.11-3.81a25.93,25.93,0,0,0-1.55-3.66,18.66,18.66,0,0,0-2.08-3.17,10.53,10.53,0,0,0-2.7-2.35,9.35,9.35,0,0,0-3.41-1.19,12.42,12.42,0,0,0-8.1,2,9.36,9.36,0,0,0-2.5,2.61,10.14,10.14,0,0,0-1.31,3.3,18.52,18.52,0,0,0-.37,3.76,27.08,27.08,0,0,0,.32,4c.2,1.35.46,2.66.77,3.93s.67,2.52,1.1,3.8a26.5,26.5,0,0,0,1.55,3.65,18.77,18.77,0,0,0,2.08,3.16,10.52,10.52,0,0,0,2.7,2.34A9.37,9.37,0,0,0,651.3,355a11,11,0,0,0,4.2-.27,10,10,0,0,0,3.75-1.68,9.33,9.33,0,0,0,2.43-2.67A11.32,11.32,0,0,0,663,347a18.79,18.79,0,0,0,.44-3.78,27.71,27.71,0,0,0-.25-3.94C663,337.92,662.79,336.65,662.5,335.44Z"/><path class="cls-2" d="M716,316.62A15.42,15.42,0,0,1,718,321a11,11,0,0,1-.66,7.82,16.41,16.41,0,0,1-2.17,3.42,24,24,0,0,1-3.06,3.08,36.83,36.83,0,0,1-3.64,2.74,32,32,0,0,1-4.94,2.74,21.48,21.48,0,0,1-4.83,1.49,22,22,0,0,1-5,.31,31.26,31.26,0,0,1-5.57-.84l1.62-8.36a13.9,13.9,0,0,0,4,1.86A16.8,16.8,0,0,0,698,336a15.76,15.76,0,0,0,4-.36,9.92,9.92,0,0,0,3.29-1.34,23.46,23.46,0,0,0,2.87-2.25,10,10,0,0,0,2-2.4,5.17,5.17,0,0,0,.7-2.53,4.74,4.74,0,0,0-.89-2.63,3.84,3.84,0,0,0-1.63-1.44,5.16,5.16,0,0,0-2-.46,9.25,9.25,0,0,0-2.29.24,21,21,0,0,0-2.35.67c-.77.26-1.52.54-2.25.82s-1.38.52-2,.7c-1.14.36-2.34.73-3.59,1.1s-2.52.7-3.8,1a26.21,26.21,0,0,1-3.8.5,12.76,12.76,0,0,1-3.62-.29,10.21,10.21,0,0,1-3.31-1.43,9.87,9.87,0,0,1-2.79-2.88,15.75,15.75,0,0,1-2.07-4.3,11.3,11.3,0,0,1-.44-4,11.16,11.16,0,0,1,.95-3.71,15.51,15.51,0,0,1,2.07-3.38,22.61,22.61,0,0,1,3-3.07,37.17,37.17,0,0,1,3.61-2.74,25.94,25.94,0,0,1,5.12-2.7,21.65,21.65,0,0,1,4.91-1.26,20.79,20.79,0,0,1,4.79-.07,29.12,29.12,0,0,1,4.73.88L701.5,307a13.67,13.67,0,0,0-3.73-2.09,15.27,15.27,0,0,0-3.92-.89,12.22,12.22,0,0,0-3.7.2,8.81,8.81,0,0,0-3,1.24,23.65,23.65,0,0,0-2.94,2.29,9.91,9.91,0,0,0-1.93,2.37,4.54,4.54,0,0,0,.28,5,4.23,4.23,0,0,0,1.6,1.51,4.89,4.89,0,0,0,1.93.51,7.93,7.93,0,0,0,2.14-.21c.73-.17,1.46-.38,2.2-.63s1.44-.53,2.13-.81,1.34-.52,1.94-.71l3.66-1.17c1.28-.4,2.58-.74,3.89-1a28.35,28.35,0,0,1,3.93-.55,13.39,13.39,0,0,1,3.76.26,10.11,10.11,0,0,1,3.41,1.43A9.74,9.74,0,0,1,716,316.62Z"/><path class="cls-3" d="M44.39,274.83l-3.77,3.86L10.47,249.18l5.28-5.4,38.64,1.94L33.68,225.46l3.75-3.83,30.15,29.5-5.28,5.4-38.6-1.94Z"/><path class="cls-3" d="M65.66,204.41c.22,1.65.52,3.32.91,5s.84,3.35,1.35,5,1.06,3.21,1.67,4.74,1.22,3,1.87,4.27l1.59,3.25c.6,1.2,1.26,2.39,2,3.57a29.37,29.37,0,0,0,2.42,3.34,12.08,12.08,0,0,0,2.88,2.52,7.56,7.56,0,0,0,3.35,1.14,7.13,7.13,0,0,0,3.85-.83,8,8,0,0,0,2.82-2.14,7.26,7.26,0,0,0,1.4-2.75,9.53,9.53,0,0,0,.27-3.13,19,19,0,0,0-.55-3.28,25,25,0,0,0-1.09-3.23c-.44-1.06-.88-2.05-1.34-3L78.88,198l10.46-5.09,9.39,19.28a24.38,24.38,0,0,1,2.42,8.34,20.57,20.57,0,0,1-.71,8,18.72,18.72,0,0,1-3.79,6.93,20.66,20.66,0,0,1-6.81,5.16,18.89,18.89,0,0,1-5.69,1.77,19.24,19.24,0,0,1-5.57,0,19.66,19.66,0,0,1-5.26-1.57,22.44,22.44,0,0,1-4.72-2.94,25.74,25.74,0,0,1-4-4,24.69,24.69,0,0,1-3-4.91l-.25-.53a28.89,28.89,0,0,1-1.7-4.56,45.07,45.07,0,0,1-1.14-5,48.16,48.16,0,0,1-.56-5.28,49.27,49.27,0,0,1,0-5.3Z"/><path class="cls-3" d="M144.11,222.41l-29.49,6.91L105,188.24l29.49-6.91,1.23,5.25-18.17,4.26,3,12.69,14-3.29,1.23,5.22-14,3.29,3,12.67,18.17-4.26Z"/><path class="cls-3" d="M183.27,206.28a15.57,15.57,0,0,1-.33,4.84,11.19,11.19,0,0,1-1.67,3.74,11.4,11.4,0,0,1-2.74,2.76,16.75,16.75,0,0,1-3.58,1.91,25,25,0,0,1-4.17,1.19,42,42,0,0,1-4.52.6,33.06,33.06,0,0,1-5.65,0,22,22,0,0,1-4.94-1.08,21.81,21.81,0,0,1-4.54-2.2,30.84,30.84,0,0,1-4.44-3.46l5.51-6.49a14.18,14.18,0,0,0,2.53,3.56,17,17,0,0,0,3.36,2.7,16,16,0,0,0,3.69,1.67,10,10,0,0,0,3.53.44,23,23,0,0,0,3.6-.54,10.07,10.07,0,0,0,2.88-1.14,5.15,5.15,0,0,0,1.85-1.86,4.81,4.81,0,0,0,.52-2.73,3.83,3.83,0,0,0-.72-2.06,5.5,5.5,0,0,0-1.55-1.4,9.39,9.39,0,0,0-2.11-.91,19.61,19.61,0,0,0-2.38-.57c-.8-.15-1.59-.28-2.36-.39s-1.46-.23-2.06-.36c-1.17-.25-2.4-.51-3.67-.8s-2.53-.63-3.78-1a26.54,26.54,0,0,1-3.55-1.42,13.13,13.13,0,0,1-3-2,10.19,10.19,0,0,1-2.18-2.87,9.94,9.94,0,0,1-1-3.87,15.5,15.5,0,0,1,.31-4.77,11.05,11.05,0,0,1,1.59-3.72,11.17,11.17,0,0,1,2.64-2.76,15.56,15.56,0,0,1,3.47-1.93,23.3,23.3,0,0,1,4.1-1.22,36.22,36.22,0,0,1,4.49-.61,26.07,26.07,0,0,1,5.79.16,21.64,21.64,0,0,1,4.9,1.31,21.11,21.11,0,0,1,4.21,2.29,29.54,29.54,0,0,1,3.68,3.09l-5.52,6.49a13.55,13.55,0,0,0-2.22-3.65,15.15,15.15,0,0,0-3-2.71,12.62,12.62,0,0,0-3.32-1.63,8.59,8.59,0,0,0-3.26-.42,22.79,22.79,0,0,0-3.69.55,9.62,9.62,0,0,0-2.84,1.12,4.7,4.7,0,0,0-1.76,1.84,4.8,4.8,0,0,0-.48,2.69,4.21,4.21,0,0,0,.66,2.1A4.67,4.67,0,0,0,157,192a7.44,7.44,0,0,0,2,.87,22.44,22.44,0,0,0,2.22.52c.77.14,1.52.26,2.26.35s1.42.2,2,.33l3.76.78c1.31.28,2.61.62,3.89,1a29.17,29.17,0,0,1,3.69,1.45,13.22,13.22,0,0,1,3.15,2.07,10.16,10.16,0,0,1,2.27,2.92A9.74,9.74,0,0,1,183.27,206.28Z"/><path class="cls-3" d="M209.33,220.44l-11.61-.6,1.9-36.75-11.47-.59.28-5.38L223,178.91l-.27,5.38-11.47-.59Z"/><path class="cls-3" d="M237.05,223.54l-11.47-1.93,7-41.6L253,183.45a23.61,23.61,0,0,1,5.46,1.62,14.21,14.21,0,0,1,4.39,2.94,10.81,10.81,0,0,1,2.66,4.32,12,12,0,0,1,.29,5.81,11.33,11.33,0,0,1-1.9,4.66,14.55,14.55,0,0,1-3.57,3.56,16.73,16.73,0,0,1-9.76,3c.54,1.39,1.12,2.73,1.75,4s1.28,2.48,1.95,3.62,1.35,2.18,2,3.16,1.35,1.88,2,2.7a48.92,48.92,0,0,0,4.55,5.07l-14.3-2.41A23.9,23.9,0,0,1,246,221a36.07,36.07,0,0,1-1.85-5.32,29.35,29.35,0,0,1-.94-7.06l-3.49-.59Zm17.14-27.36q.7-4.19-1-6.49c-1.14-1.54-3.06-2.54-5.78-3l-4-.68-3,18,4,.68a7.76,7.76,0,0,0,3.85-.2,7.2,7.2,0,0,0,2.9-1.77,9.41,9.41,0,0,0,2-2.92A15.1,15.1,0,0,0,254.19,196.18Z"/><path class="cls-3" d="M314.89,221.48a23,23,0,0,1-4.38,8.26,20,20,0,0,1-6.69,5.19,21.25,21.25,0,0,1-8.31,2,28.58,28.58,0,0,1-17.59-5.41,21.38,21.38,0,0,1-5.74-6.33,20,20,0,0,1-2.61-8,23,23,0,0,1,1-9.3A23.37,23.37,0,0,1,275,199.5a19.81,19.81,0,0,1,6.65-5.19,21.44,21.44,0,0,1,8.29-2,29.22,29.22,0,0,1,17.7,5.44,21.52,21.52,0,0,1,5.74,6.3,19.84,19.84,0,0,1,2.59,8A23.57,23.57,0,0,1,314.89,221.48ZM303.57,218c.38-1.23.71-2.51,1-3.83a27.2,27.2,0,0,0,.54-3.94,18.36,18.36,0,0,0-.17-3.8,10.49,10.49,0,0,0-1.12-3.39,9.2,9.2,0,0,0-2.32-2.77,11,11,0,0,0-3.75-1.9,11.39,11.39,0,0,0-4.22-.55,9.17,9.17,0,0,0-3.48,1,10.05,10.05,0,0,0-2.81,2.17,18.56,18.56,0,0,0-2.24,3,26.92,26.92,0,0,0-1.76,3.57c-.51,1.26-1,2.52-1.34,3.77s-.71,2.51-1,3.83a24.72,24.72,0,0,0-.54,3.93,18.88,18.88,0,0,0,.17,3.78,10.49,10.49,0,0,0,1.12,3.39A9.24,9.24,0,0,0,284,229a10.55,10.55,0,0,0,3.74,1.92,10.19,10.19,0,0,0,4.09.48,9.33,9.33,0,0,0,3.45-1.06,11.19,11.19,0,0,0,2.87-2.21,18.35,18.35,0,0,0,2.31-3,26.35,26.35,0,0,0,1.8-3.51A35.62,35.62,0,0,0,303.57,218Z"/><path class="cls-3" d="M350.69,247.44a15.44,15.44,0,0,1-2.69,4,11.07,11.07,0,0,1-7.06,3.46,16.77,16.77,0,0,1-4.05-.12,24,24,0,0,1-4.21-1,39.91,39.91,0,0,1-4.23-1.72,33.35,33.35,0,0,1-4.88-2.83,21.52,21.52,0,0,1-6.6-7.55,30.9,30.9,0,0,1-2.14-5.21l8-2.9a14.21,14.21,0,0,0,.43,4.34,17.43,17.43,0,0,0,1.57,4,15.77,15.77,0,0,0,2.38,3.28,9.69,9.69,0,0,0,2.85,2.14,22.53,22.53,0,0,0,3.4,1.31,9.88,9.88,0,0,0,3.06.44,5.06,5.06,0,0,0,2.53-.69,4.69,4.69,0,0,0,1.8-2.11,3.94,3.94,0,0,0,.41-2.15,5.58,5.58,0,0,0-.66-2,9.31,9.31,0,0,0-1.38-1.84,21.7,21.7,0,0,0-1.78-1.68c-.63-.53-1.25-1-1.86-1.51s-1.15-.92-1.61-1.33c-.89-.8-1.82-1.63-2.79-2.52s-1.89-1.8-2.77-2.76a27.8,27.8,0,0,1-2.38-3,13,13,0,0,1-1.61-3.26,10.38,10.38,0,0,1-.47-3.57,9.92,9.92,0,0,1,1-3.87,15.27,15.27,0,0,1,2.63-4,11.06,11.06,0,0,1,6.89-3.53,15.64,15.64,0,0,1,4,.05,22.43,22.43,0,0,1,4.15,1,33.4,33.4,0,0,1,4.21,1.7,26.1,26.1,0,0,1,4.94,3,21.81,21.81,0,0,1,3.61,3.57,20.89,20.89,0,0,1,2.52,4.08,29.85,29.85,0,0,1,1.66,4.51l-8,2.9a13.9,13.9,0,0,0-.12-4.28,15,15,0,0,0-1.24-3.82,12.72,12.72,0,0,0-2.07-3.07,8.59,8.59,0,0,0-2.63-2,22.53,22.53,0,0,0-3.48-1.35,9.76,9.76,0,0,0-3-.44,4.81,4.81,0,0,0-2.44.72,4.94,4.94,0,0,0-1.75,2.1,4.4,4.4,0,0,0-.47,2.15,4.88,4.88,0,0,0,.56,1.92,7.92,7.92,0,0,0,1.27,1.73,20.93,20.93,0,0,0,1.68,1.56c.59.5,1.19,1,1.78,1.42s1.14.88,1.61,1.3l2.88,2.54A40.18,40.18,0,0,1,347,233.4a30,30,0,0,1,2.49,3.08,13.18,13.18,0,0,1,1.7,3.37,10.22,10.22,0,0,1,.53,3.66A10,10,0,0,1,350.69,247.44Z"/><path class="cls-3" d="M409.53,296.33a15.38,15.38,0,0,1-3.94,2.83,10.93,10.93,0,0,1-7.82.73,15.87,15.87,0,0,1-3.75-1.54,24.4,24.4,0,0,1-3.57-2.45,40.72,40.72,0,0,1-3.35-3.11,33.09,33.09,0,0,1-3.56-4.38,21.77,21.77,0,0,1-2.32-4.49A22.36,22.36,0,0,1,380,279a31.29,31.29,0,0,1-.16-5.63l8.51.11a14.09,14.09,0,0,0-1.13,4.22,16.76,16.76,0,0,0,.05,4.31,15.56,15.56,0,0,0,1.07,3.91,9.89,9.89,0,0,0,1.9,3,22.31,22.31,0,0,0,2.72,2.43,9.94,9.94,0,0,0,2.71,1.5,5.12,5.12,0,0,0,2.61.24,4.72,4.72,0,0,0,2.43-1.34,3.89,3.89,0,0,0,1.14-1.86,5.42,5.42,0,0,0,.08-2.09,9.59,9.59,0,0,0-.63-2.21,23.56,23.56,0,0,0-1.08-2.2c-.4-.71-.8-1.4-1.21-2.06s-.75-1.27-1-1.82c-.55-1.06-1.13-2.17-1.72-3.34s-1.12-2.36-1.61-3.57a26.65,26.65,0,0,1-1.17-3.65,12.81,12.81,0,0,1-.34-3.62,10.2,10.2,0,0,1,.82-3.51,9.89,9.89,0,0,1,2.33-3.25,15.81,15.81,0,0,1,3.88-2.8,11,11,0,0,1,3.87-1.14,11.43,11.43,0,0,1,3.82.28,15.75,15.75,0,0,1,3.7,1.44,23.5,23.5,0,0,1,3.55,2.39,38.19,38.19,0,0,1,3.33,3.07A26.67,26.67,0,0,1,422,266.4a21.34,21.34,0,0,1,2.11,4.61,20.88,20.88,0,0,1,.91,4.7,28.66,28.66,0,0,1,0,4.81l-8.51-.12a13.68,13.68,0,0,0,1.4-4,15.23,15.23,0,0,0,.19-4,12.32,12.32,0,0,0-.86-3.6,8.52,8.52,0,0,0-1.75-2.78,22.3,22.3,0,0,0-2.78-2.5A9.39,9.39,0,0,0,410,262a4.69,4.69,0,0,0-2.53-.19,4.87,4.87,0,0,0-2.38,1.35,4.18,4.18,0,0,0-1.2,1.84,4.6,4.6,0,0,0-.16,2,7.65,7.65,0,0,0,.58,2.07c.3.69.63,1.37,1,2.05s.77,1.33,1.17,2,.75,1.23,1,1.78l1.8,3.4c.62,1.19,1.18,2.4,1.69,3.65a29.65,29.65,0,0,1,1.24,3.77,13.39,13.39,0,0,1,.4,3.75,10.11,10.11,0,0,1-.8,3.6A9.79,9.79,0,0,1,409.53,296.33Z"/><path class="cls-3" d="M436,331.68l-25.69-16.05,22.35-35.78,25.69,16.06-2.85,4.57-15.83-9.89-6.91,11.06L445,309.28l-2.85,4.55L430,306.19l-6.89,11,15.82,9.89Z"/><path class="cls-3" d="M458.92,340.86,448,337l14-39.79,19.56,6.9a22.89,22.89,0,0,1,5.1,2.53,14.34,14.34,0,0,1,3.82,3.65,10.76,10.76,0,0,1,1.88,4.71,11.93,11.93,0,0,1-.72,5.78A11.1,11.1,0,0,1,489,325a14.37,14.37,0,0,1-4.13,2.89,16.29,16.29,0,0,1-5,1.42,16.5,16.5,0,0,1-5.16-.15c.29,1.46.63,2.88,1,4.24s.83,2.66,1.3,3.89.95,2.39,1.46,3.47,1,2.08,1.49,3a48.24,48.24,0,0,0,3.62,5.78l-13.68-4.83a24.15,24.15,0,0,1-1.81-4.89,34.65,34.65,0,0,1-.91-5.56,28.65,28.65,0,0,1,.29-7.12L464.16,326Zm21.58-24c.94-2.67,1-4.86.13-6.57s-2.59-3-5.18-3.94L471.58,305l-6.09,17.26,3.87,1.37a7.93,7.93,0,0,0,3.82.46,7.29,7.29,0,0,0,3.16-1.24,9.59,9.59,0,0,0,2.45-2.54A15.13,15.13,0,0,0,480.5,316.85Z"/><path class="cls-3" d="M513.88,355.66l-10.43-2.05-7.37-44.43,11.65,2.28L512.68,347l16.9-31.29,7.07,1.38Z"/><path class="cls-3" d="M547.57,360.13,536,358.94l4.33-42,11.56,1.19Z"/><path class="cls-3" d="M598.12,330l-5,2.06a15,15,0,0,0-1.53-3.5,11,11,0,0,0-2.32-2.74,10.29,10.29,0,0,0-3.07-1.78,11.62,11.62,0,0,0-7.81,0,11.39,11.39,0,0,0-3.3,1.94,13.78,13.78,0,0,0-2.56,2.91,18.9,18.9,0,0,0-1.85,3.54,21,21,0,0,0-1.13,3.9,24.68,24.68,0,0,0-.39,3.95,27.08,27.08,0,0,0,.66,6.13,17.56,17.56,0,0,0,2.23,5.5,12.43,12.43,0,0,0,4,4,11.44,11.44,0,0,0,6,1.57,10.05,10.05,0,0,0,3.56-.6,10.8,10.8,0,0,0,3-1.7,12.28,12.28,0,0,0,2.42-2.56,14,14,0,0,0,1.67-3.21l5,2.07a15.66,15.66,0,0,1-3.1,4.85,17.83,17.83,0,0,1-4.44,3.43,21.17,21.17,0,0,1-5.32,2,24,24,0,0,1-5.71.63,22.85,22.85,0,0,1-6-.82,21.67,21.67,0,0,1-5.3-2.22,21.14,21.14,0,0,1-4.43-3.44,21.56,21.56,0,0,1-3.39-4.45,21.79,21.79,0,0,1-2.14-5.31,22.61,22.61,0,0,1-.72-6,22.93,22.93,0,0,1,.83-6,22.22,22.22,0,0,1,2.25-5.28,21.44,21.44,0,0,1,3.47-4.4,21.12,21.12,0,0,1,4.5-3.36,22.27,22.27,0,0,1,5.34-2.11,23,23,0,0,1,6-.71,24.29,24.29,0,0,1,5.84.76,20.06,20.06,0,0,1,5.29,2.18,17.7,17.7,0,0,1,4.35,3.61A16.38,16.38,0,0,1,598.12,330Z"/><path class="cls-3" d="M618.81,359.56l-11.58,1.08-3.92-42,11.58-1.08Z"/><path class="cls-3" d="M670,327.64a23.17,23.17,0,0,1,.46,9.34,20,20,0,0,1-3.09,7.88,21.55,21.55,0,0,1-6.12,6,28.54,28.54,0,0,1-17.88,4.34,21.6,21.6,0,0,1-8.18-2.5,20.23,20.23,0,0,1-6.36-5.59,23,23,0,0,1-3.87-8.51,23.47,23.47,0,0,1-.5-9.42,19.76,19.76,0,0,1,3.07-7.86,21.29,21.29,0,0,1,6.11-5.95,29.17,29.17,0,0,1,18-4.37,21.26,21.26,0,0,1,8.16,2.49,19.68,19.68,0,0,1,6.32,5.57A23.43,23.43,0,0,1,670,327.64Zm-11.5,2.8c-.31-1.26-.68-2.52-1.11-3.81a25.93,25.93,0,0,0-1.55-3.66,18.66,18.66,0,0,0-2.08-3.17,10.53,10.53,0,0,0-2.7-2.35,9.35,9.35,0,0,0-3.41-1.19,12.42,12.42,0,0,0-8.1,2,9.36,9.36,0,0,0-2.5,2.61,10.14,10.14,0,0,0-1.31,3.3,18.52,18.52,0,0,0-.37,3.76,27.08,27.08,0,0,0,.32,4c.2,1.35.46,2.66.77,3.93s.67,2.52,1.1,3.8a26.5,26.5,0,0,0,1.55,3.65,18.77,18.77,0,0,0,2.08,3.16,10.52,10.52,0,0,0,2.7,2.34A9.37,9.37,0,0,0,647.3,350a11,11,0,0,0,4.2-.27,10,10,0,0,0,3.75-1.68,9.33,9.33,0,0,0,2.43-2.67A11.32,11.32,0,0,0,659,342a18.79,18.79,0,0,0,.44-3.78,27.71,27.71,0,0,0-.25-3.94C659,332.92,658.79,331.65,658.5,330.44Z"/><path class="cls-3" d="M712,311.62A15.42,15.42,0,0,1,714,316a11,11,0,0,1-.66,7.82,16.41,16.41,0,0,1-2.17,3.42,24,24,0,0,1-3.06,3.08,36.83,36.83,0,0,1-3.64,2.74,32,32,0,0,1-4.94,2.74,21.48,21.48,0,0,1-4.83,1.49,22,22,0,0,1-5,.31,31.26,31.26,0,0,1-5.57-.84l1.62-8.36a13.9,13.9,0,0,0,4,1.86A16.8,16.8,0,0,0,694,331a15.76,15.76,0,0,0,4-.36,9.92,9.92,0,0,0,3.29-1.34,23.46,23.46,0,0,0,2.87-2.25,10,10,0,0,0,2-2.4,5.17,5.17,0,0,0,.7-2.53,4.74,4.74,0,0,0-.89-2.63,3.84,3.84,0,0,0-1.63-1.44,5.16,5.16,0,0,0-2-.46,9.25,9.25,0,0,0-2.29.24,21,21,0,0,0-2.35.67c-.77.26-1.52.54-2.25.82s-1.38.52-2,.7c-1.14.36-2.34.73-3.59,1.1s-2.52.7-3.8,1a26.21,26.21,0,0,1-3.8.5,12.76,12.76,0,0,1-3.62-.29,10.21,10.21,0,0,1-3.31-1.43,9.87,9.87,0,0,1-2.79-2.88,15.75,15.75,0,0,1-2.07-4.3,11.3,11.3,0,0,1-.44-4,11.16,11.16,0,0,1,.95-3.71,15.51,15.51,0,0,1,2.07-3.38,22.61,22.61,0,0,1,3-3.07,37.17,37.17,0,0,1,3.61-2.74,25.94,25.94,0,0,1,5.12-2.7,21.65,21.65,0,0,1,4.91-1.26,20.79,20.79,0,0,1,4.79-.07,29.12,29.12,0,0,1,4.73.88L697.5,302a13.67,13.67,0,0,0-3.73-2.09,15.27,15.27,0,0,0-3.92-.89,12.22,12.22,0,0,0-3.7.2,8.81,8.81,0,0,0-3,1.24,23.65,23.65,0,0,0-2.94,2.29,9.91,9.91,0,0,0-1.93,2.37,4.54,4.54,0,0,0,.28,5,4.23,4.23,0,0,0,1.6,1.51,4.89,4.89,0,0,0,1.93.51,7.93,7.93,0,0,0,2.14-.21c.73-.17,1.46-.38,2.2-.63s1.44-.53,2.13-.81,1.34-.52,1.94-.71l3.66-1.17c1.28-.4,2.58-.74,3.89-1a28.35,28.35,0,0,1,3.93-.55,13.39,13.39,0,0,1,3.76.26,10.11,10.11,0,0,1,3.41,1.43A9.74,9.74,0,0,1,712,311.62Z"/><path class="cls-4" d="M40.39,271.83l-3.77,3.86L6.47,246.18l5.28-5.4,38.64,1.94L29.68,222.46l3.75-3.83,30.15,29.5-5.28,5.4-38.6-1.94Z"/><path class="cls-4" d="M61.66,201.41c.22,1.65.52,3.32.91,5s.84,3.35,1.35,5,1.06,3.21,1.67,4.74,1.22,3,1.87,4.27l1.59,3.25c.6,1.2,1.26,2.39,2,3.57a29.37,29.37,0,0,0,2.42,3.34,12.08,12.08,0,0,0,2.88,2.52,7.56,7.56,0,0,0,3.35,1.14,7.13,7.13,0,0,0,3.85-.83,8,8,0,0,0,2.82-2.14,7.26,7.26,0,0,0,1.4-2.75,9.53,9.53,0,0,0,.27-3.13,19,19,0,0,0-.55-3.28,25,25,0,0,0-1.09-3.23c-.44-1.06-.88-2.05-1.34-3L74.88,195l10.46-5.09,9.39,19.28a24.38,24.38,0,0,1,2.42,8.34,20.57,20.57,0,0,1-.71,8,18.72,18.72,0,0,1-3.79,6.93,20.66,20.66,0,0,1-6.81,5.16,18.89,18.89,0,0,1-5.69,1.77,19.24,19.24,0,0,1-5.57,0,19.66,19.66,0,0,1-5.26-1.57,22.44,22.44,0,0,1-4.72-2.94,25.74,25.74,0,0,1-4-4,24.69,24.69,0,0,1-3-4.91l-.25-.53a28.89,28.89,0,0,1-1.7-4.56,45.07,45.07,0,0,1-1.14-5,48.16,48.16,0,0,1-.56-5.28,49.27,49.27,0,0,1,0-5.3Z"/><path class="cls-4" d="M140.11,219.41l-29.49,6.91L101,185.24l29.49-6.91,1.23,5.25-18.17,4.26,3,12.69,14-3.29,1.23,5.22-14,3.29,3,12.67,18.17-4.26Z"/><path class="cls-4" d="M179.27,203.28a15.57,15.57,0,0,1-.33,4.84,11.19,11.19,0,0,1-1.67,3.74,11.4,11.4,0,0,1-2.74,2.76,16.75,16.75,0,0,1-3.58,1.91,25,25,0,0,1-4.17,1.19,42,42,0,0,1-4.52.6,33.06,33.06,0,0,1-5.65,0,22,22,0,0,1-4.94-1.08,21.81,21.81,0,0,1-4.54-2.2,30.84,30.84,0,0,1-4.44-3.46l5.51-6.49a14.18,14.18,0,0,0,2.53,3.56,17,17,0,0,0,3.36,2.7,16,16,0,0,0,3.69,1.67,10,10,0,0,0,3.53.44,23,23,0,0,0,3.6-.54,10.07,10.07,0,0,0,2.88-1.14,5.15,5.15,0,0,0,1.85-1.86,4.81,4.81,0,0,0,.52-2.73,3.83,3.83,0,0,0-.72-2.06,5.5,5.5,0,0,0-1.55-1.4,9.39,9.39,0,0,0-2.11-.91,19.61,19.61,0,0,0-2.38-.57c-.8-.15-1.59-.28-2.36-.39s-1.46-.23-2.06-.36c-1.17-.25-2.4-.51-3.67-.8s-2.53-.63-3.78-1a26.54,26.54,0,0,1-3.55-1.42,13.13,13.13,0,0,1-3-2,10.19,10.19,0,0,1-2.18-2.87,9.94,9.94,0,0,1-1-3.87,15.5,15.5,0,0,1,.31-4.77,11.05,11.05,0,0,1,1.59-3.72,11.17,11.17,0,0,1,2.64-2.76,15.56,15.56,0,0,1,3.47-1.93,23.3,23.3,0,0,1,4.1-1.22,36.22,36.22,0,0,1,4.49-.61,26.07,26.07,0,0,1,5.79.16,21.64,21.64,0,0,1,4.9,1.31,21.11,21.11,0,0,1,4.21,2.29,29.54,29.54,0,0,1,3.68,3.09l-5.52,6.49a13.55,13.55,0,0,0-2.22-3.65,15.15,15.15,0,0,0-3-2.71,12.62,12.62,0,0,0-3.32-1.63,8.59,8.59,0,0,0-3.26-.42,22.79,22.79,0,0,0-3.69.55,9.62,9.62,0,0,0-2.84,1.12,4.7,4.7,0,0,0-1.76,1.84,4.8,4.8,0,0,0-.48,2.69,4.21,4.21,0,0,0,.66,2.1A4.67,4.67,0,0,0,153,189a7.44,7.44,0,0,0,2,.87,22.44,22.44,0,0,0,2.22.52c.77.14,1.52.26,2.26.35s1.42.2,2,.33l3.76.78c1.31.28,2.61.62,3.89,1a29.17,29.17,0,0,1,3.69,1.45,13.22,13.22,0,0,1,3.15,2.07,10.16,10.16,0,0,1,2.27,2.92A9.74,9.74,0,0,1,179.27,203.28Z"/><path class="cls-4" d="M205.33,217.44l-11.61-.6,1.9-36.75-11.47-.59.28-5.38L219,175.91l-.27,5.38-11.47-.59Z"/><path class="cls-4" d="M233.05,220.54l-11.47-1.93,7-41.6L249,180.45a23.61,23.61,0,0,1,5.46,1.62,14.21,14.21,0,0,1,4.39,2.94,10.81,10.81,0,0,1,2.66,4.32,12,12,0,0,1,.29,5.81,11.33,11.33,0,0,1-1.9,4.66,14.55,14.55,0,0,1-3.57,3.56,16.73,16.73,0,0,1-9.76,3c.54,1.39,1.12,2.73,1.75,4s1.28,2.48,1.95,3.62,1.35,2.18,2,3.16,1.35,1.88,2,2.7a48.92,48.92,0,0,0,4.55,5.07l-14.3-2.41A23.9,23.9,0,0,1,242,218a36.07,36.07,0,0,1-1.85-5.32,29.35,29.35,0,0,1-.94-7.06l-3.49-.59Zm17.14-27.36q.7-4.19-1-6.49c-1.14-1.54-3.06-2.54-5.78-3l-4-.68-3,18,4,.68a7.76,7.76,0,0,0,3.85-.2,7.2,7.2,0,0,0,2.9-1.77,9.41,9.41,0,0,0,2-2.92A15.1,15.1,0,0,0,250.19,193.18Z"/><path class="cls-4" d="M310.89,218.48a23,23,0,0,1-4.38,8.26,20,20,0,0,1-6.69,5.19,21.25,21.25,0,0,1-8.31,2,28.58,28.58,0,0,1-17.59-5.41,21.38,21.38,0,0,1-5.74-6.33,20,20,0,0,1-2.61-8,23,23,0,0,1,1-9.3A23.37,23.37,0,0,1,271,196.5a19.81,19.81,0,0,1,6.65-5.19,21.44,21.44,0,0,1,8.29-2,29.22,29.22,0,0,1,17.7,5.44,21.52,21.52,0,0,1,5.74,6.3,19.84,19.84,0,0,1,2.59,8A23.57,23.57,0,0,1,310.89,218.48ZM299.57,215c.38-1.23.71-2.51,1-3.83a27.2,27.2,0,0,0,.54-3.94,18.36,18.36,0,0,0-.17-3.8,10.49,10.49,0,0,0-1.12-3.39,9.2,9.2,0,0,0-2.32-2.77,11,11,0,0,0-3.75-1.9,11.39,11.39,0,0,0-4.22-.55,9.17,9.17,0,0,0-3.48,1,10.05,10.05,0,0,0-2.81,2.17,18.56,18.56,0,0,0-2.24,3,26.92,26.92,0,0,0-1.76,3.57c-.51,1.26-1,2.52-1.34,3.77s-.71,2.51-1,3.83a24.72,24.72,0,0,0-.54,3.93,18.88,18.88,0,0,0,.17,3.78,10.49,10.49,0,0,0,1.12,3.39A9.24,9.24,0,0,0,280,226a10.55,10.55,0,0,0,3.74,1.92,10.19,10.19,0,0,0,4.09.48,9.33,9.33,0,0,0,3.45-1.06,11.19,11.19,0,0,0,2.87-2.21,18.35,18.35,0,0,0,2.31-3,26.35,26.35,0,0,0,1.8-3.51A35.62,35.62,0,0,0,299.57,215Z"/><path class="cls-4" d="M346.69,244.44a15.44,15.44,0,0,1-2.69,4,11.07,11.07,0,0,1-7.06,3.46,16.77,16.77,0,0,1-4.05-.12,24,24,0,0,1-4.21-1,39.91,39.91,0,0,1-4.23-1.72,33.35,33.35,0,0,1-4.88-2.83,21.52,21.52,0,0,1-6.6-7.55,30.9,30.9,0,0,1-2.14-5.21l8-2.9a14.21,14.21,0,0,0,.43,4.34,17.43,17.43,0,0,0,1.57,4,15.77,15.77,0,0,0,2.38,3.28,9.69,9.69,0,0,0,2.85,2.14,22.53,22.53,0,0,0,3.4,1.31,9.88,9.88,0,0,0,3.06.44,5.06,5.06,0,0,0,2.53-.69,4.69,4.69,0,0,0,1.8-2.11,3.94,3.94,0,0,0,.41-2.15,5.58,5.58,0,0,0-.66-2,9.31,9.31,0,0,0-1.38-1.84,21.7,21.7,0,0,0-1.78-1.68c-.63-.53-1.25-1-1.86-1.51s-1.15-.92-1.61-1.33c-.89-.8-1.82-1.63-2.79-2.52s-1.89-1.8-2.77-2.76a27.8,27.8,0,0,1-2.38-3,13,13,0,0,1-1.61-3.26,10.38,10.38,0,0,1-.47-3.57,9.92,9.92,0,0,1,1-3.87,15.27,15.27,0,0,1,2.63-4,11.06,11.06,0,0,1,6.89-3.53,15.64,15.64,0,0,1,4,.05,22.43,22.43,0,0,1,4.15,1,33.4,33.4,0,0,1,4.21,1.7,26.1,26.1,0,0,1,4.94,3,21.81,21.81,0,0,1,3.61,3.57,20.89,20.89,0,0,1,2.52,4.08,29.85,29.85,0,0,1,1.66,4.51l-8,2.9a13.9,13.9,0,0,0-.12-4.28,15,15,0,0,0-1.24-3.82,12.72,12.72,0,0,0-2.07-3.07,8.59,8.59,0,0,0-2.63-2,22.53,22.53,0,0,0-3.48-1.35,9.76,9.76,0,0,0-3-.44,4.81,4.81,0,0,0-2.44.72,4.94,4.94,0,0,0-1.75,2.1,4.4,4.4,0,0,0-.47,2.15,4.88,4.88,0,0,0,.56,1.92,7.92,7.92,0,0,0,1.27,1.73,20.93,20.93,0,0,0,1.68,1.56c.59.5,1.19,1,1.78,1.42s1.14.88,1.61,1.3l2.88,2.54A40.18,40.18,0,0,1,343,230.4a30,30,0,0,1,2.49,3.08,13.18,13.18,0,0,1,1.7,3.37,10.22,10.22,0,0,1,.53,3.66A10,10,0,0,1,346.69,244.44Z"/><path class="cls-4" d="M405.53,293.33a15.38,15.38,0,0,1-3.94,2.83,10.93,10.93,0,0,1-7.82.73,15.87,15.87,0,0,1-3.75-1.54,24.4,24.4,0,0,1-3.57-2.45,40.72,40.72,0,0,1-3.35-3.11,33.09,33.09,0,0,1-3.56-4.38,21.77,21.77,0,0,1-2.32-4.49A22.36,22.36,0,0,1,376,276a31.29,31.29,0,0,1-.16-5.63l8.51.11a14.09,14.09,0,0,0-1.13,4.22,16.76,16.76,0,0,0,.05,4.31,15.56,15.56,0,0,0,1.07,3.91,9.89,9.89,0,0,0,1.9,3,22.31,22.31,0,0,0,2.72,2.43,9.94,9.94,0,0,0,2.71,1.5,5.12,5.12,0,0,0,2.61.24,4.72,4.72,0,0,0,2.43-1.34,3.89,3.89,0,0,0,1.14-1.86,5.42,5.42,0,0,0,.08-2.09,9.59,9.59,0,0,0-.63-2.21,23.56,23.56,0,0,0-1.08-2.2c-.4-.71-.8-1.4-1.21-2.06s-.75-1.27-1-1.82c-.55-1.06-1.13-2.17-1.72-3.34s-1.12-2.36-1.61-3.57a26.65,26.65,0,0,1-1.17-3.65,12.81,12.81,0,0,1-.34-3.62,10.2,10.2,0,0,1,.82-3.51,9.89,9.89,0,0,1,2.33-3.25,15.81,15.81,0,0,1,3.88-2.8,11,11,0,0,1,3.87-1.14,11.43,11.43,0,0,1,3.82.28,15.75,15.75,0,0,1,3.7,1.44,23.5,23.5,0,0,1,3.55,2.39,38.19,38.19,0,0,1,3.33,3.07A26.67,26.67,0,0,1,418,263.4a21.34,21.34,0,0,1,2.11,4.61,20.88,20.88,0,0,1,.91,4.7,28.66,28.66,0,0,1,0,4.81l-8.51-.12a13.68,13.68,0,0,0,1.4-4,15.23,15.23,0,0,0,.19-4,12.32,12.32,0,0,0-.86-3.6,8.52,8.52,0,0,0-1.75-2.78,22.3,22.3,0,0,0-2.78-2.5A9.39,9.39,0,0,0,406,259a4.69,4.69,0,0,0-2.53-.19,4.87,4.87,0,0,0-2.38,1.35,4.18,4.18,0,0,0-1.2,1.84,4.6,4.6,0,0,0-.16,2,7.65,7.65,0,0,0,.58,2.07c.3.69.63,1.37,1,2.05s.77,1.33,1.17,2,.75,1.23,1,1.78l1.8,3.4c.62,1.19,1.18,2.4,1.69,3.65a29.65,29.65,0,0,1,1.24,3.77,13.39,13.39,0,0,1,.4,3.75,10.11,10.11,0,0,1-.8,3.6A9.79,9.79,0,0,1,405.53,293.33Z"/><path class="cls-4" d="M432,328.68l-25.69-16.05,22.35-35.78,25.69,16.06-2.85,4.57-15.83-9.89-6.91,11.06L441,306.28l-2.85,4.55L426,303.19l-6.89,11,15.82,9.89Z"/><path class="cls-4" d="M454.92,337.86,444,334l14-39.79,19.56,6.9a22.89,22.89,0,0,1,5.1,2.53,14.34,14.34,0,0,1,3.82,3.65,10.76,10.76,0,0,1,1.88,4.71,11.93,11.93,0,0,1-.72,5.78A11.1,11.1,0,0,1,485,322a14.37,14.37,0,0,1-4.13,2.89,16.29,16.29,0,0,1-5,1.42,16.5,16.5,0,0,1-5.16-.15c.29,1.46.63,2.88,1,4.24s.83,2.66,1.3,3.89.95,2.39,1.46,3.47,1,2.08,1.49,3a48.24,48.24,0,0,0,3.62,5.78l-13.68-4.83a24.15,24.15,0,0,1-1.81-4.89,34.65,34.65,0,0,1-.91-5.56,28.65,28.65,0,0,1,.29-7.12L460.16,323Zm21.58-24c.94-2.67,1-4.86.13-6.57s-2.59-3-5.18-3.94L467.58,302l-6.09,17.26,3.87,1.37a7.93,7.93,0,0,0,3.82.46,7.29,7.29,0,0,0,3.16-1.24,9.59,9.59,0,0,0,2.45-2.54A15.13,15.13,0,0,0,476.5,313.85Z"/><path class="cls-4" d="M509.88,352.66l-10.43-2.05-7.37-44.43,11.65,2.28L508.68,344l16.9-31.29,7.07,1.38Z"/><path class="cls-4" d="M543.57,357.13,532,355.94l4.33-42,11.56,1.19Z"/><path class="cls-4" d="M594.12,327l-5,2.06a15,15,0,0,0-1.53-3.5,11,11,0,0,0-2.32-2.74,10.29,10.29,0,0,0-3.07-1.78,11.62,11.62,0,0,0-7.81,0,11.39,11.39,0,0,0-3.3,1.94,13.78,13.78,0,0,0-2.56,2.91,18.9,18.9,0,0,0-1.85,3.54,21,21,0,0,0-1.13,3.9,24.68,24.68,0,0,0-.39,3.95,27.08,27.08,0,0,0,.66,6.13,17.56,17.56,0,0,0,2.23,5.5,12.43,12.43,0,0,0,4,4,11.44,11.44,0,0,0,6,1.57,10.05,10.05,0,0,0,3.56-.6,10.8,10.8,0,0,0,3-1.7,12.28,12.28,0,0,0,2.42-2.56,14,14,0,0,0,1.67-3.21l5,2.07a15.66,15.66,0,0,1-3.1,4.85,17.83,17.83,0,0,1-4.44,3.43,21.17,21.17,0,0,1-5.32,2,24,24,0,0,1-5.71.63,22.85,22.85,0,0,1-6-.82,21.67,21.67,0,0,1-5.3-2.22,21.14,21.14,0,0,1-4.43-3.44,21.56,21.56,0,0,1-3.39-4.45,21.79,21.79,0,0,1-2.14-5.31,22.61,22.61,0,0,1-.72-6,22.93,22.93,0,0,1,.83-6,22.22,22.22,0,0,1,2.25-5.28,21.44,21.44,0,0,1,3.47-4.4,21.12,21.12,0,0,1,4.5-3.36,22.27,22.27,0,0,1,5.34-2.11,23,23,0,0,1,6-.71,24.29,24.29,0,0,1,5.84.76,20.06,20.06,0,0,1,5.29,2.18,17.7,17.7,0,0,1,4.35,3.61A16.38,16.38,0,0,1,594.12,327Z"/><path class="cls-4" d="M614.81,356.56l-11.58,1.08-3.92-42,11.58-1.08Z"/><path class="cls-4" d="M666,324.64a23.17,23.17,0,0,1,.46,9.34,20,20,0,0,1-3.09,7.88,21.55,21.55,0,0,1-6.12,6,28.54,28.54,0,0,1-17.88,4.34,21.6,21.6,0,0,1-8.18-2.5,20.23,20.23,0,0,1-6.36-5.59,23,23,0,0,1-3.87-8.51,23.47,23.47,0,0,1-.5-9.42,19.76,19.76,0,0,1,3.07-7.86,21.29,21.29,0,0,1,6.11-5.95,29.17,29.17,0,0,1,18-4.37,21.26,21.26,0,0,1,8.16,2.49,19.68,19.68,0,0,1,6.32,5.57A23.43,23.43,0,0,1,666,324.64Zm-11.5,2.8c-.31-1.26-.68-2.52-1.11-3.81a25.93,25.93,0,0,0-1.55-3.66,18.66,18.66,0,0,0-2.08-3.17,10.53,10.53,0,0,0-2.7-2.35,9.35,9.35,0,0,0-3.41-1.19,12.42,12.42,0,0,0-8.1,2,9.36,9.36,0,0,0-2.5,2.61,10.14,10.14,0,0,0-1.31,3.3,18.52,18.52,0,0,0-.37,3.76,27.08,27.08,0,0,0,.32,4c.2,1.35.46,2.66.77,3.93s.67,2.52,1.1,3.8a26.5,26.5,0,0,0,1.55,3.65,18.77,18.77,0,0,0,2.08,3.16,10.52,10.52,0,0,0,2.7,2.34A9.37,9.37,0,0,0,643.3,347a11,11,0,0,0,4.2-.27,10,10,0,0,0,3.75-1.68,9.33,9.33,0,0,0,2.43-2.67A11.32,11.32,0,0,0,655,339a18.79,18.79,0,0,0,.44-3.78,27.71,27.71,0,0,0-.25-3.94C655,329.92,654.79,328.65,654.5,327.44Z"/><path class="cls-4" d="M708,308.62A15.42,15.42,0,0,1,710,313a11,11,0,0,1-.66,7.82,16.41,16.41,0,0,1-2.17,3.42,24,24,0,0,1-3.06,3.08,36.83,36.83,0,0,1-3.64,2.74,32,32,0,0,1-4.94,2.74,21.48,21.48,0,0,1-4.83,1.49,22,22,0,0,1-5,.31,31.26,31.26,0,0,1-5.57-.84l1.62-8.36a13.9,13.9,0,0,0,4,1.86A16.8,16.8,0,0,0,690,328a15.76,15.76,0,0,0,4-.36,9.92,9.92,0,0,0,3.29-1.34,23.46,23.46,0,0,0,2.87-2.25,10,10,0,0,0,2-2.4,5.17,5.17,0,0,0,.7-2.53,4.74,4.74,0,0,0-.89-2.63,3.84,3.84,0,0,0-1.63-1.44,5.16,5.16,0,0,0-2-.46,9.25,9.25,0,0,0-2.29.24,21,21,0,0,0-2.35.67c-.77.26-1.52.54-2.25.82s-1.38.52-2,.7c-1.14.36-2.34.73-3.59,1.1s-2.52.7-3.8,1a26.21,26.21,0,0,1-3.8.5,12.76,12.76,0,0,1-3.62-.29,10.21,10.21,0,0,1-3.31-1.43,9.87,9.87,0,0,1-2.79-2.88,15.75,15.75,0,0,1-2.07-4.3,11.3,11.3,0,0,1-.44-4,11.16,11.16,0,0,1,.95-3.71,15.51,15.51,0,0,1,2.07-3.38,22.61,22.61,0,0,1,3-3.07,37.17,37.17,0,0,1,3.61-2.74,25.94,25.94,0,0,1,5.12-2.7,21.65,21.65,0,0,1,4.91-1.26,20.79,20.79,0,0,1,4.79-.07,29.12,29.12,0,0,1,4.73.88L693.5,299a13.67,13.67,0,0,0-3.73-2.09,15.27,15.27,0,0,0-3.92-.89,12.22,12.22,0,0,0-3.7.2,8.81,8.81,0,0,0-3,1.24,23.65,23.65,0,0,0-2.94,2.29,9.91,9.91,0,0,0-1.93,2.37,4.54,4.54,0,0,0,.28,5,4.23,4.23,0,0,0,1.6,1.51,4.89,4.89,0,0,0,1.93.51,7.93,7.93,0,0,0,2.14-.21c.73-.17,1.46-.38,2.2-.63s1.44-.53,2.13-.81,1.34-.52,1.94-.71l3.66-1.17c1.28-.4,2.58-.74,3.89-1a28.35,28.35,0,0,1,3.93-.55,13.39,13.39,0,0,1,3.76.26,10.11,10.11,0,0,1,3.41,1.43A9.74,9.74,0,0,1,708,308.62Z"/></g></g></svg>