<svg xmlns="http://www.w3.org/2000/svg" viewBox="0 0 121.03 75.39"><defs><style>.cls-1{fill:#fff;}.cls-2{fill:none;stroke:#fff;stroke-miterlimit:10;stroke-width:2.06px;fill-rule:evenodd;}</style></defs><g id="Capa_2" data-name="Capa 2"><g id="Capa_1-2" data-name="Capa 1"><g id="tarjeta"><path class="cls-1" d="M82.81,27.07a.46.46,0,0,1,.45.45V70.23a2.1,2.1,0,0,1-2.08,2.07H3.63a.56.56,0,0,1-.55-.54V28.67a1.63,1.63,0,0,1,1.6-1.6H82.81m0-3.08H4.68A4.7,4.7,0,0,0,0,28.67V71.76a3.64,3.64,0,0,0,3.63,3.63H81.18a5.18,5.18,0,0,0,5.16-5.16V27.52A3.54,3.54,0,0,0,82.81,24Z"/><rect class="cls-1" x="3.08" y="38.38" width="83.26" height="10.28"/><rect class="cls-1" x="13.36" y="52.77" width="18.5" height="6.17"/><path class="cls-2" d="M18.43,25.74l-.21-9.83a5.13,5.13,0,0,1,5-4.17h77.9a3.64,3.64,0,0,1,3.63,3.63V57.83a5.31,5.31,0,0,1-5.3,5.3H84.29"/><path class="cls-2" d="M33.63,11.38l0-5.54A4.82,4.82,0,0,1,38.47,1h77.9A3.64,3.64,0,0,1,120,4.66V47.12a5.32,5.32,0,0,1-5.3,5.3l-10.07,0"/></g></g></g></svg>