<svg xmlns="http://www.w3.org/2000/svg" viewBox="0 0 125 125"><defs><style>.cls-1,.cls-2{fill:none;stroke:#fff;stroke-miterlimit:10;}.cls-1{stroke-width:5px;}.cls-2{stroke-width:3px;}</style></defs><g id="Capa_2" data-name="Capa 2"><g id="Capa_4" data-name="Capa 4"><path class="cls-1" d="M122.5,62.5a59.85,59.85,0,0,1-20.63,45.28C97.32,90.34,83.62,77.3,67,75.67a25,25,0,1,0-7.64.06c-16.76,1.94-30.46,15.51-34.6,33.43A60,60,0,1,1,122.5,62.5Z"/><path class="cls-1" d="M101.87,107.78a60,60,0,0,1-77.09,1.38c4.14-17.92,17.84-31.49,34.6-33.43A25,25,0,1,1,67,75.67C83.62,77.3,97.32,90.34,101.87,107.78Z"/><path class="cls-2" d="M88,51A25,25,0,0,1,67,75.67a24.53,24.53,0,0,1-7.64.06A25,25,0,1,1,88,51Z"/></g></g></svg>